<mxfile host="Electron" modified="2024-08-04T15:18:28.857Z" agent="Mozilla/5.0 (Windows NT 10.0; Win64; x64) AppleWebKit/537.36 (KHTML, like Gecko) draw.io/24.6.4 Chrome/124.0.6367.207 Electron/30.0.6 Safari/537.36" etag="YgF6_QsDm4SM2DXm-qOR" version="24.6.4" type="device">
  <diagram name="第 1 页" id="6YlGt3X0YQBqRcy891bF">
    <mxGraphModel dx="2389" dy="909" grid="0" gridSize="10" guides="1" tooltips="1" connect="1" arrows="1" fold="1" page="1" pageScale="1" pageWidth="827" pageHeight="1169" math="0" shadow="0">
      <root>
        <mxCell id="0" />
        <mxCell id="1" parent="0" />
        <mxCell id="hU0LM_bAb93TU4vBXJBQ-1" value="AbstractSecurityWebApplicationInitializer" style="rounded=0;whiteSpace=wrap;html=1;verticalAlign=top;fontFamily=MesloLGS NF;" vertex="1" parent="1">
          <mxGeometry x="205" y="95" width="342" height="421" as="geometry" />
        </mxCell>
        <mxCell id="hU0LM_bAb93TU4vBXJBQ-4" value="" style="edgeStyle=orthogonalEdgeStyle;rounded=0;orthogonalLoop=1;jettySize=auto;html=1;" edge="1" parent="1" source="hU0LM_bAb93TU4vBXJBQ-2" target="hU0LM_bAb93TU4vBXJBQ-3">
          <mxGeometry relative="1" as="geometry" />
        </mxCell>
        <mxCell id="hU0LM_bAb93TU4vBXJBQ-2" value="onStartup&lt;div&gt;初始化web应用时会被调用&lt;/div&gt;" style="rounded=0;whiteSpace=wrap;html=1;fontFamily=MesloLGS NF;" vertex="1" parent="1">
          <mxGeometry x="300" y="147" width="152" height="50" as="geometry" />
        </mxCell>
        <mxCell id="hU0LM_bAb93TU4vBXJBQ-6" value="" style="edgeStyle=orthogonalEdgeStyle;rounded=0;orthogonalLoop=1;jettySize=auto;html=1;" edge="1" parent="1" source="hU0LM_bAb93TU4vBXJBQ-3" target="hU0LM_bAb93TU4vBXJBQ-5">
          <mxGeometry relative="1" as="geometry" />
        </mxCell>
        <mxCell id="hU0LM_bAb93TU4vBXJBQ-3" value="insertSpringSecurityFilterChain" style="whiteSpace=wrap;html=1;fontFamily=MesloLGS NF;rounded=0;" vertex="1" parent="1">
          <mxGeometry x="253" y="240" width="246" height="70" as="geometry" />
        </mxCell>
        <mxCell id="hU0LM_bAb93TU4vBXJBQ-8" value="" style="edgeStyle=orthogonalEdgeStyle;rounded=0;orthogonalLoop=1;jettySize=auto;html=1;" edge="1" parent="1" source="hU0LM_bAb93TU4vBXJBQ-5" target="hU0LM_bAb93TU4vBXJBQ-7">
          <mxGeometry relative="1" as="geometry" />
        </mxCell>
        <mxCell id="hU0LM_bAb93TU4vBXJBQ-5" value="new DelegatingFilterProxy&lt;div&gt;(&quot;springSecurityFilterChain&quot;)&lt;/div&gt;&lt;div&gt;本质上也是一个Filter&lt;/div&gt;" style="whiteSpace=wrap;html=1;fontFamily=MesloLGS NF;rounded=0;" vertex="1" parent="1">
          <mxGeometry x="251" y="341" width="250" height="70" as="geometry" />
        </mxCell>
        <mxCell id="hU0LM_bAb93TU4vBXJBQ-7" value="registerFilter&lt;br&gt;注册了springSecurityFilterChain" style="whiteSpace=wrap;html=1;fontFamily=MesloLGS NF;rounded=0;" vertex="1" parent="1">
          <mxGeometry x="261" y="442" width="230" height="60" as="geometry" />
        </mxCell>
        <mxCell id="hU0LM_bAb93TU4vBXJBQ-9" value="" style="shape=image;verticalLabelPosition=bottom;labelBackgroundColor=default;verticalAlign=top;aspect=fixed;imageAspect=0;image=data:image/png,iVBORw0KGgoAAAANSUhEUgAABb8AAAGHCAYAAACQ4y8wAAAgAElEQVR4Aey9a5Mlx3GmOf+HAIgG0I1Go6u6gO5GAw00unEjxRtuIw1IcUGBIkhCFFaiJBCkSGoFgmvCEDZja8u1sYXMdpdf1jBmkM1Hzr9Y2/0nueanyk9FeWVGREZG+onM83w4lpe4eIS/7+sRx09W1r974403Oj74AA7AATgAB+AAHIADcAAOwAE4AAfgAByAA3AADsABOAAH1sSBfyeTuf38i3zwARyAA3AADsABOAAH4AAcgANwAA7AATgAB+AAHIADcAAOrIIDkvcm+Q2ZV0FmfsDhByw4AAfgAByAA3AADsABOAAH4AAcgANwAA7AATgAB5QDJL9JfJP4hgNwAA7AATgAB+AAHIADcAAOwAE4AAfgAByAA3AADqyOAyS/IfXqSK2/7HDkVz44AAfgAByAA3AADsABOAAH4AAcgANwAA7AATiwvxwg+U3ym+Q3HIADcAAOwAE4AAfgAByAA3AADsABOAAH4AAcgANwYHUcIPkNqVdHan7N299f88Ae7OEAHIADcAAOwAE4AAfgAByAA3AADsABOAAHlAMkv0l+k/yGA3AADsABOAAHZuDA9370fveTf/jVpI/0oZs2jmzg4QAcgANwAA7AATgAB+AAHIAD4zhA8nuGL7uQcBwJ8Rf+ggNwAA7AgTVyQBLfv/yX/zzpI32s0TfMCc3DATgAB+AAHIADcAAOwAE44MEBkt8kv/lSDQfgAByAA3AADszAAZLfbOY9NvPYgGdwAA7AATgAB+AAHIADcGCYAyS/Z/iyC+GGCYdv8A0cgANwAA7sCwdIfsP1feE684TrcAAOwAE4AAfgAByAA61ygOQ3yW+e9oMDcAAOwAE4AAccOHDr2z/qbj//UsTXL3XHdebZOL/zyRfdF5/9onv1zguRMcxje+6N8DNv/qL77Isvun/7t3/rPvvwz5qfX4tY7HJM1ra9nps/9L9M3YMbuMEBOAAH4AAcgAM5HCD57fBlNwcI6iBYOAAH4AAcgAPr5cBT7/6sO/r8/+1u/Pp/H0zMSpnUkbq5XHj1w3/dJHwl6aufL7741+6DN88muJ+582fdB5+tM/n9zJ0fdZ988cWsSe9cP+fi1lpyd25+9PlP+PrJD17o+mx7+KdvTGv9cSiXl9Rb7xoEtmALB+AAHIAD+8wBkt8kv7O/YO+zUJg7CwUcgANwAA6UcuDWOz/tjv7v/6c7+vz/23xu/uJ/Pbf2yj0tl7rSJseeJPBswk6fgv7iE3nSfP24Hc/3fMK/5txr+9kjuTs0f/2xQBLPQ3Vq39/474vfde9k/tWB9c8cY7aY9iXha/uB/tYfj8AYjOEAHIADcAAOtMcBkt978KUQ4bUnPDABEzgAB+DAfnDg6W/+affk777orv+n/7ZJbj/5v/1xc37r7fe3iUc5l3IpkwT45vx3X3TSNsUTm8DT+posXMIrQHTMpcdnfvC7ru9p99L++trV9rNN7vbZnOuecoPk9/APR56+mQtn+t2PNQacwRkOwAE4AAfgQJoDJL9Jfie/WCOktJDwET6CA3AADsCBFAcksX3r2z8cXHelTOqk+gnLh5KyUmdTFjxtaxOu+qTr6etSzj+ZK4llLZfjZx/+6Pj1KcFT5drvOyevYNEn0VP9b9p98qPNONWGtpWxb+8FcwjnLufSh9aTY5gE1yfgw3Kb1Bwau7Uzxs/S1trWeWm/ajd8/3qqzabfDDxifg/9qn7RH0jCMWkf8tcDYZsverDI4cjGfz1th/wRjiW0b8c8xteWn5sxmXfg2x8GdBy2bZ9dGVvILx13eE/7F79q3yEHpN+h++orjqw1cAAOwAE4AAfgABwYxwGS3yS/R33JRmDjBIa/8BccgANwAA4oB1LJb6035tiXwNP29nUgNqn26oe/274bfJvsDJKBfck76UOSfOErVfruyRhS/Ws7Tb6GyV/tP0wW6rzsse/Jb03Inkk8nvxTTLUn/egY1J7tW6/H+NmOp8+3YjdMiOe0ycUj5Xf1aegb9YWOSccsWKu/tF3oq/wx/WvXlzhX/1p/2Gu1bcec47chjPsw7dOM5buMeQy/rE/Vf3bsm35P3l9v56l+4sh6AgfgAByAA3AADsCB8Rwg+U3ym+Q3HIADcAAOwAE44MCBVPL76Tfe3rzyZMyGti+Bp+01mayJNJtQ1Hp6PE7GHT/9rclGTXxu6+g/zrRPfkee6t223bye5PTp8r7xbO6ZvvrqaZ9ytEnEobFL3Y2/gv777IV963munzVprD7X9n1JVZsUjbUZmpPa04Sq2guPIa5yX/uy9kI/b/sNfgyRtqH/tJ8cjkg7SSKHnzAZHtoWO/ZabYVj1jGG9zbz2/zIcfoO+CGMLaZqI/RlX1utZ+dt/bMZS/DPWEPfHZcd/xPasB+LldTjgw/gAByAA3AADsABODCNAyS/2VSyqYYDcAAOwAE4AAccOJBKfj/zjT/tbv7970ZhYRN44cY4lnDVepLc60tI2sS51teE47kEoUmSav2h/qV8k1gMkujbe6av2Bylzbnk98kT3jYp2ld3MwZjT+rZT2wMoZ/Vb6FPw3MdU2g3p43W0fY6vj48pCzmd03e2r7OjKnnRw7pN0zgjhlT2E7HHh5D2zp+/XFArvvGrPZD/4bnOj/bt9qVMYX15TxMRPeNYzOWEfwK64ev5AnHoPNULO0YtC7H87rEJ/gEDsABOAAH4AAcyOEAye+eLzg5jqMOAoMDcAAOwAE4AAfGcCCZ/H75G9F3gvfZiiVlbcIxTAJqMjF8+jZ86lQTi5pAVNuaoEslv1P9S3+b8awg+R36echv6j89nsEikkzV+kP9Wjxy/K51LLZnxrSg5Ledh/pMj+G89J4cY9rRen1th7CQNvaHmM29E3z7kt/HfR0/pR6eq32OrDFwAA7AATgAB+AAHJjOAZLfJL/PPd2EsKYLCx/iQzgAB+AAHLAcSCW/a/7DS01whk+Rhom8viTdmSRu8LqGcB7abzL5vXnFyemrJ6SPsH+53oxnjuT3wNgHxzDhyW/1h/rZXoe+C8/PYBEZr7YZ6lfvKx4pXKU/bWOTxmfHdPxKDu1XxxFiqP3o3LWO3g/bhu20XngMbct9e619hmPWe9Z+2G9fX1q+GVMCezsOaRuza+epP07IGPvspcp1rBxZT+AAHIADcAAOwAE4UM4Bkt8kv0l+wwE4AAfgAByAAzNw4Cf/8Kvul//ynyd9pI/YRrc3ofaD321e5xAmH6WPMJEnSVJ5zYMmE/Vp1vBJ8E39L84msOWetAv7DvvVsWb3P0PyW8YgfgnnJ/fsmKxPdOx9xzF+7rUtT/8Gc7U+y26TwMPOsQ/XoeRtOCZNyoY4i182fjj3zvQ0R2w76+PQtpTZ66ExZ/utJ8m9GVPP/XBsdhxa1mvXaMrOY8ingtkXn/2u++SzL7Z6VDscy7/k4jt8BwfgAByAA3AADigHSH7P8GVXncsRocEBOAAH4AAc2F8OeCW/JckbfsIEdsg/m8jTBN4mmS1JQPMPKaWttAn7/uQH558Itv2qzVT/m3ZBQljt6TuQw37sPS2T4yZ5aJLCej8ce99rJ4bGHvYv5+FctM8hP/fVt+Pvs2tt2DbSr7RT+3LswyPsZ9NHD66aJJc+9MnpcExDiVrp2847d0y2Xejj0LbO086/b8ylvtZ21kY4pqFxaJ1wPOJHy6/NnAwvtz9GBLzXxH7MP2qT4/6uJ2AP9nAADsABOAAHyjlA8pvkd/SJMsRVLi58h+/gAByAA/vNAY/ktzfHhpKi3uPA3rG2WsSjxTG1zBf8td/rRMvcZGxwEw7AATgAB9bCAZLfJL9JfsMBOAAH4AAcgAMzcOB7P3q/kwT4lI/00dKmU59c1deltDS2fRxLi3i0OKaWuXHsr7Ovjml5vIyNRAgcgANwAA7AATiwNA6Q/J7hy+7SSMB4CVxwAA7AATgAB+CA5YC84kJfiSFl29czJN6TbPvhug63WsSjxTEtjW+b16MEr0FZ2vgZbx1940f8CAfgAByAA3BgPg6Q/Cb53dQTZYh9PrHjW3wLB+AAHIADYzlg3+ds/wHi2P6oP42DLeLR4piWwDP54WDzrnB+TOK7CN9H4QAcgANwAA7AgVk5QPIbgs1KsCV8+WCM076I4z/8BwfgAByAA3AADsABOAAH4AAcgANwAA7AATjQIgdIfpP8JvkNB+AAHIADcAAOwAE4AAfgAByAA3AADsABOAAH4AAcWB0HSH5D6tWRusVfmRgTv37CATgAB+AAHIADcAAOwAE4AAfgAByAA3AADsABXw6Q/Cb5TfIbDsABOAAH4AAcgANwAA7AATgAB+AAHIADcAAOwAE4sDoObJPfX/rSl7rcz4MPPphdN7dPW+/KlSuz2/CYx1psgAf6sBqtcY0+2uIVeIBHDV3bPlg/2uIVeICH1WiNa9aPtngFHuBRQ9e2D9aPtngFHuBhNVrjmvWjLV6BRz08SH6PSPqXBBPIWo+sJf63bcADPCwnalyz+WyLV+ABHjV0bftg/WiLV+ABHlajNa5ZP9riFXiARw1d2z5YP9riFXiAh9VojWvWj7Z41QIeJL9Jfmc9Yd8CWWsEQRbXtoIgeIBHDV3bPohXbfEKPMDDarTGNetHW7wCD/CooWvbB+tHW7wCD/CwGq1xzfrRFq/AAzxq6Nr20cL6QfKb5DfJ78oc8FgwWggeNqCVXHv4ysMGeLS1SQAP8CiJR6k2HrHEwwb6QB8prpeUe3DXwwb6QB8l/E+18eCuhw30gT5SXC8p9+Cuhw30gT5K+J9q48FdDxst6IPkd+XEpyWvB5E8bLRAVuvbkmsPX3nYAA8W1xL+p9p4cNfDBvpAHymul5R7cNfDBvpAHyX8T7Xx4K6HDfSBPlJcLyn34K6HDfSBPkr4n2rjwV0PG+gDfaS4XlLuwV0PGy3og+Q3yW+e/K7MgX0JHiXB27bx8JWHjRaCufVtybWHrzxsgAebzxL+p9p4cNfDBvpAHymul5R7cNfDBvpAHyX8T7Xx4K6HDfSBPlJcLyn34K6HDfSBPkr4n2rjwV0PGy3og+R35cSnJa8HkTxstEBW69uSaw9fedgADxbXEv6n2nhw18MG+kAfKa6XlHtw18MG+kAfJfxPtfHgrocN9IE+UlwvKffgrocN9IE+SvifauPBXQ8b6AN9pLheUu7BXQ8bLeiD5DfJb578rsyBfQkeJcHbtvHwlYeNFoK59W3JtYevPGyAB5vPEv6n2nhw18MG+kAfKa6XlHtw18MG+kAfJfxPtfHgrocN9IE+UlwvKffgrocN9IE+SvifauPBXQ8bLeiD5HflxKclrweRPGy0QFbr25JrD1952AAPFtcS/qfaeHDXwwb6QB8prpeUe3DXwwb6QB8l/E+18eCuhw30gT5SXC8p9+Cuhw30gT5K+J9q48FdDxvoA32kuF5S7sFdDxst6IPkN8lvnvyuzIF9CR4lwdu28fCVh40Wgrn1bcm1h688bIAHm88S/qfaeHDXwwb6QB8prpeUe3DXwwb6QB8l/E+18eCuhw30gT5SXC8p9+Cuhw30gT5K+J9q48FdDxst6IPkd+XEpyWvB5E8bLRAVuvbkmsPX3nYAA8W1xL+p9p4cNfDBvpAHymul5R7cNfDBvpAHyX8T7Xx4K6HDfSBPlJcLyn34K6HDfSBPkr4n2rjwV0PG+gDfaS4XlLuwV0PGy3og+Q3yW+e/K7MgX0JHiXB27bx8JWHjRaCufVtybWHrzxsgAebzxL+p9p4cNfDBvpAHymul5R7cNfDBvpAHyX8T7Xx4K6HDfSBPlJcLyn34K6HDfSBPkr4n2rjwV0PGy3og+R35cSnJa8HkTxstEBW69uSaw9fedgADxbXEv6n2nhw18MG+kAfKa6XlHtw18MG+kAfJfxPtfHgrocN9IE+UlwvKffgrocN9IE+SvifauPBXQ8b6AN9pLheUu7BXQ8bLeiD5DfJb578rsyBfQkeJcHbtvHwlYeNFoK59W3JtYevPGyAB5vPEv6n2nhw18MG+kAfKa6XlHtw18MG+kAfJfxPtfHgrocN9IE+UlwvKffgrocN9IE+SvifauPBXQ8bLehjm/yWCbf0Eee0NJ59Hwt4oI9910Bs/ugDfcT4se9l6AN97LsGYvNHH+gjxo99L0Mf6GPfNRCbP/pAHzF+7HsZ+kAfVgPb5HfqF4ewXDoJr+c4F7LO0W/Yp8c81mIDPPglM9ROrXP00RavwAM8amk77If1oy1egQd4hPqsdc760RavwAM8amk77If1oy1egQd4hPqsdc760RavwKMeHiS/K7/ywgYdyFqPrNa3JdfgAR4lvEm1YfPZFq/AAzxSmi0pZ/1oi1fgAR4lOk61Yf1oi1fgAR4pzZaUs360xSvwAI8SHafasH60xasW8CD5TfI76wn7FsiaCnA55SyubQVB8ACPHN2OrUO8aotX4AEeYzWcU5/1oy1egQd45Oh2bB3Wj7Z4BR7gMVbDOfVZP9riFXiAR45ux9ZpYf0g+U3ym+R3ZQ54LBgtBI+xAa+vvoevPGyAR1ubBPAAj754M/WeRyzxsIE+0MdULfS19+Cuhw30gT76+D31ngd3PWygD/QxVQt97T2462EDfaCPPn5PvefBXQ8bLeiD5HflxKcltweRPGy0QFbr25JrD1952AAPFtcS/qfaeHDXwwb6QB8prpeUe3DXwwb6QB8l/E+18eCuhw30gT5SXC8p9+Cuhw30gT5K+J9q48FdDxvoA32kuF5S7sFdDxst6IPkN8lvnvyuzIF9CR4lwdu28fCVh40Wgrn1bcm1h688bIAHm88S/qfaeHDXwwb6QB8prpeUe3DXwwb6QB8l/E+18eCuhw30gT5SXC8p9+Cuhw30gT5K+J9q48FdDxst6IPkd+XEpyWvB5E8bLRAVuvbkmsPX3nYAA8W1xL+p9p4cNfDBvpAHymul5R7cNfDBvpAHyX8T7Xx4K6HDfSBPlJcLyn34K6HDfSBPkr4n2rjwV0PG+gDfaS4XlLuwV0PGy3og+Q3yW+e/K7MgX0JHiXB27bx8JWHjRaCufVtybWHrzxsgAebzxL+p9p4cNfDBvpAHymul5R7cNfDBvpAHyX8T7Xx4K6HDfSBPlJcLyn34K6HDfSBPkr4n2rjwV0PGy3og+R35cSnJa8HkTxstEBW69uSaw9fedgAj/ji+t5773V8luWDixcvZv0Ql6N79BHXR+hD4lVbvgIP8Aj1Wevcg1drscH60ZYGwQM8asXBsB/iVVu8Ag/wCPVZ65z1oy1etYAHyW+S31kJpxbIWiMQsri2FQTnwkMS37dv3+5u3LixuM/R0dHixjzFz4KT4EXy+7w259JHGEs9bLB+nMc2xCA8B4+2fAUe4BHqs9a5B6/WYoP1oy0Nggd41IqDYT/Eq7Z4BR7gEeqz1nkL6wfJb5LfJL8rc8BjwWgheNQIhHP5SpKpkpC9evXq4j6XL19e3Jin+Pn69eskvwdi0Fz6CLXrYYN41dYmGjzAI4wBtc49YomHDfSBPmppIuzHg7seNtAH+gh5Xevcg7seNtAH+qilibAfD+562GhBHyS/B5IOIeGmnHsQycNGC2SdgoO29fCVhw3wiC+uJL+Xk/Qn+T3MZY9Y4mGDeDWMsa5NegSPtnwFHuCh2qx59ODVWmywfrSlQfAAj5qxUPsiXrXFK/AAD9VmzWML6wfJb5LfPPldmQMeC0YLwaNGMJzLVyS/SX7X4Gesj7m4G9pciw3iVVubaPAAjzDO1DonXrXFK/AAj1raDvth/WiLV+ABHqE+a52zfrTFK/CohwfJ78qJTxt0IGs9slrfllyDx37gQfKb5HdJfBjTZi2xxGMefDlrK+6CB3iMiXW5dT1iiYcN9IE+cjk/pp4Hdz1soA/0MYb3uXU9uOthA32gj1zOj6nnwV0PGy3og+Q3yW+e/K7MgX0JHmOC9lDduXw1Jvl9cHS1u/mVw+6Ztw675965tvnIudyTsinvsy5pyzu/8zdOQ7xqYXEdGtuY+3PpIxyDhw3wyOc0eLTlK/AAjzBe1jr34NVabLB+tKVB8ACPWnEw7Id41RavwAM8Qn3WOm9h/SD5XTnxaclB8CB4WE7UuG4heNSYx1z6yEl+HxwedLdePexe+Om17qWfHfV+pEzqSN2SRHZJG5Lf+TFjiIPoI9+Hc2kwxAY8wCPkQ61zD+562EAf6KOWJsJ+PLjrYQN9oI+Q17XOPbjrYQN9oI9amgj78eCuhw30gT5CXss5yW+S3zz5XZkDBPPdB9pU8vvwiYPuue8f9ia8+xLhUlfalCSzx7Yh+Z3PH7ug6TWbnXwfEq/a8hV4gIfGsZpHD16txQbrR1saBA/wqBkLtS/iVVu8Ag/wUG3WPLJ+tMWrFvAg+V058WkFSzBvS3TgsR94xJLf8hT3mMS3JsOljccT4CS/8zlq461et7C46limHIlX+VxYi6885oE+2uIVeIDHlHViqK1HLPGwgT7QxxDHp9z34K6HDfSBPqboYKitB3c9bKAP9GE5TvKb5DdPflfmAMF894E2lvyW15hoQnvsUdoOPcl9eONqd/s7h93d905elXJQ9r7w3OT33ff/0P3rf/3v3SfvvzI4pqGxtnT/+vXrneB18eLFrFhkF7G+azY7u9dgiAt4gEfIh1rnHmuthw30gT5qaSLsx4O7HjbQB/oIeV3r3IO7HjbQB/qopYmwHw/uethAH+gj5LWck/yunPi0DvYQtocNggfBw3K7xvVc3B1Kfss/sOx7x/dT373cXbn34JlPX2Jc2vb9E8wn7xx0X/3NE92t146T4y/+9Kh7+edHRUnpnOT3lSuvdO/+/o/dhx992n32+w+6u1euFNlqIQlO8ns4tsylj1C7HjZYP4YxDrGQc/Boy1fgAR5WozWuPXi1FhusH21pEDzAo0YMtH0Qr9riFXiAh9VojesW1g+S3yS/s562bIGsNURHMN+PYD6U/L7xSv9T37fffbx78o2L3cWn7t985Lwv+S33pA+bNJZ7kvy+/uLxe8HvfP9a98qvZkx+v/Vp99nnn3ZvvvhB98nnf+w+fIvkdxgfiFdt6Rw8wCPUZ61z1vO2eAUe4FFL22E/rB9t8Qo8wCPUZ61z1o+2eAUe4FFL22E/LawfJL9JfpP8rswBjwWjheARBrPS87l8NZT8vv3ta4NJbUls69PfQ4lvuS99nE9+Hz/5/eQLB93RrYPu+R8eda/8+mhzLtfhx7a11zlPfr/50R+7zz56u9MnwOU87GdTbp4IH7x30lb7klepyGeTXA+eKNf2b568biV84vzKSRJ+29bYDsdmz3nye3iDNZc+Qr162CBeDWMcYiHn4NGWr8ADPKxGa1x78GotNlg/2tIgeIBHjRho+yBetcUr8AAPq9Ea1y2sHyS/Kyc+LTEIHgQPy4ka1y0EjxrzmEsfQ8nv5/5ievJb+rAJ3BtfOU1+yxPgsY9ta69TyW9NNOvT3vLu788+/0P37ounT39f2TwZfnrvypW3uw8//+OZeprsPu3n020fWhYmuCX5vUmKm0T7eVvHr2QJ29o5htckv4dj5Fz6CLXrYYN4NYxxiIWcg0dbvgIP8LAarXHtwau12GD9aEuD4AEeNWKg7YN41RavwAM8rEZrXLewfpD8JvnNk9+VOeCxYLQQPGoEwbl85Z38DpO5scS3lIV1+85Tye/jZPen3ZsnT2VrMjz8x5ea7NbEtiaoP/n9H7f/IPO43WmC3I7luM2pnc2T3/KqleBpcE2Sqx3tI9W31pMjye/hDdZc+gi162GDeDWMcYiFnINHW74CD/CwGq1x7cGrtdhg/WhLg+ABHjVioO2DeNUWr8ADPKxGa1y3sH5sk98yGD74AA7AgTVwYCj5PddrT8Jk7pzJb01qh6850QR072tKTp7S3iTMP3q72xxPXkkSnuv49enu7etLgmS3vvYk/OeamnjX+vZok+JqJzza5Pca+McciKNwAA7AATgAB+AAHIADcAAOwAE4AAfa4MA2+T0mm+/xa5AQZMyYSup6zGMtNsCjrV8AwSOOx1Dye65/eBkmc2dNfr/16ebVIzbJrNdhsvk0uX38GhIpO05WHz+9LclsfVp8m1QPkt29T36bd3lr8ju0G/oi59wmv0tiuW2DPuL6CP3lsUaBB3iEnKt17sFdDxvoA33U0kTYjwd3PWygD/QR8rrWuQd3PWygD/RRSxNhPx7c9bCBPtBHyGs5J/ld+ZUX1sEewvawQfAgeFhu17iei7tDye+Do6vdCz89/97vp757efvPLmP/9FLaSh+xpO5cye/tE94mAS1j6SvbvnrkrQ+6T06S2lrvw7fkHeCnrzzR16KE7w3fJM+DZHjvk98n7xLXJHrML0NlJL+HY8tc+gi162GD9WMY4xALOQePtnwFHuBhNVrj2oNXa7HB+tGWBsEDPGrEQNsH8aotXoEHeFiN1rhuYf0g+U3yO+sJ+xbIWkN0BPP9COZDyW9JwN569bB76WdHRR9pO5TE1fv3/vpaF/tovaHj0Du/U09Z2wT2NtH90add+JqU4yfC/9B9EiTRpa08Pa5PcKut8FUqfclvmYP0F7aVe5v25h9jDs2X5PewJolXw76x68FafOUxD9bztngFHuBh41mNa49Y4mEDfaCPGnqwfXhw18MG+kAflts1rj2462EDfaAPqweS3yS/SX5X5gDBfPeBNpb8Pjg86J77/vgEuLSRtkNJ3Fr3h5Lfm+Rz8CS2tbd9dUmQdB5MTH9++soT7UfrSiL7M0mMv/Vpl5P8lvZh22374B9jqo2+I8nvYb14xBIPG2w+hzG2mzLwaMtX4AEeVqM1rj14tRYbrB9taRA8wKNGDLR9EK/a4hV4gIfVaI3rFtYPkt+VE5+WGAQPgoflRI3rFoJHjXnMpY9Y8lsSsIdPjEuAS+Jb2vQlb2vfG0p+17bTSn8kv5eaQ6EAACAASURBVIdj5Fz6CLXrYYN4NYxxiIWcg0dbvgIP8LAarXHtwau12GD9aEuD4AEeNWKg7YN41RavwAM8rEZrXLewfpD8JvnNk9+VOeCxYLQQPGoEwbl8lUp+S+JXnuKW15j0vQNcX4siZVLH44lvTUaT/M7fcAxxEH3k+3AuDYbYgAd4hHyode7BXQ8b6AN91NJE2I8Hdz1soA/0EfK61rkHdz1soA/0UUsTYT8e3PWwgT7QR8hrOSf5XTnxaR3sIWwPGwQPgofldo3rubibk/zWZLP8A8ubXznsnnnrsHvunWubj5zLvdQ/t9Q+ah5JfudrbYiDxKt8H86lwRAb8ACPkA+1zj2462EDfaCPWpoI+/HgrocN9IE+Ql7XOvfgrocN9IE+amki7MeDux420Af6CHkt5yS/SX7z5HdlDhDMdx9oxyS/ayaua/RF8jufP3ZB02s2O/k+JF615SvwAA+NYzWPHrxaiw3Wj7Y0CB7gUTMWal/Eq7Z4BR7godqseWT9aItXLeBB8rty4tMKlmDelujAYz/wIPl91eX95DWS/bzze1iTxKth36x1rfXAvIXNp8Wv5NrDVx42wKMtnYMHeJTEo1Qbj1jiYQN9oI8U10vKPbjrYQN9oI8S/qfaeHDXw0YL+iD5TfKbJ78rc2BfgkcqUOeUz+Urkt8kv3P4N6XOXNwNx7QWGy1sdkK/lp6DR1tfasADPEq1HGtHvGqLV+ABHjG9lpaxfrTFK/AAj1Itx9qxfrTFqxbwIPldOfFpBUgwb0t04LEfeJD8JvltY3Ht67XEEo95tLDZqYG/h688bIBHW+sgeIBHjfhk+/CIJR420Af6sNyuce3BXQ8b6AN91NCD7cODux420Af6sNwm+U3ymye/K3OAYL77QEvym+S3XexqX3vofC022HzuPiaG/AcP8Aj5UOuceNUWr8ADPGppO+yH9aMtXoEHeIT6rHXO+tEWr8CjHh4kvysnPm3Qgaz1yGp9W3INHvuBB8lvkt8l8WFMm7XEEo958OWsrbgLHuAxJtbl1vWIJR420Af6yOX8mHoe3PWwgT7Qxxje59b14K6HDfSBPnI5P6aeB3c9bLSgD5LfJL958rsyB/YleIwJ2kN15/KVJL9v377dyT9TXNrn6OhocWOe4mPBSfC6ePFiViwa4lJ4v4XFNRxP6flc+gjH42EDPPgyEHKu1rkHdz1soA/0UUsTYT8e3PWwgT7QR8jrWuce3PWwgT7QRy1NhP14cNfDBvpAHyGv5Zzkd+XEp3Wwh7A9bBA8CB6W2zWu5+KuJFPX9/lh92f/05+scF7HWJH8Ph9j5tJHqF0PG6wf57ENMQjPwaMtX4EHeIT6rHXuwau12GD9aEuD4AEeteJg2A/xqi1egQd4hPqsdd7C+kHym+R31tOWLZC1hvAI5vsRzCWRurbPV96/3b3+23vdtTsHq5tbzcS3xAniVVs6Bw/wqLF+2z5Yz9viFXiAh9VojWvWj7Z4BR7gUUPXtg/Wj7Z4BR7gYTVa47qF9YPkN8lvkt+VOeCxYLQQPGoEQQ9fediYG48HHvhS99rH9zbJ72/88k6WZkvw8fCVh4258RDfesxjLTbAo61NNHiAR8n6kGpDvGqLV+ABHinNlpSzfrTFK/AAjxIdp9qwfrTFK/CohwfJ78qJTxtMIGs9slrfllyDB3iU8CbVZu7N58s/ubVJfMuT3/K5/FS992OHc0Mf6CPkQ63zufUh41wLdz3mAR5t6Rw8wKNWrA378YglHjbQB/oIeV3r3IO7HjbQB/qopYmwHw/uethAH+gj5LWck/wm+Z31FCnBg+Bhg0eNa4+Fz8PGnPoIn/rW5PdcT397+MrDxpx4KO895rEWG+DB+qG6qXlEH23xCjzAo6a+tS/Wj7Z4BR7godqseWT9aItX4AEeNfWtfbWwfpD8JvlN8rsyBzwWjBaChwayKUcPX3nYmBMP+9S3JsDnePrbw1ceNubEQ/nuMY+12ACPtjbR4AEeGsdqHolXbfEKPMCjpr61L9aPtngFHuCh2qx5ZP1oi1fgUQ8Pkt+VE5828EDWemS1vi25Bg/wKOFNqs1cm8++p741+T3H09/oA32kuF5SPpc+wrGshbse8wCPtnQOHuARxrJa5x6xxMMG+kAftTQR9uPBXQ8b6AN9hLyude7BXQ8b6AN9WE2Q/Cb5zZPflTlAMG8r0C4Zj6GnvjUBXvvpbw9fedhgs9OWBsEDPOzms8a1RyzxsIE+0EcNPdg+PLjrYQN9oA/L7RrXHtz1sIE+0EcNPdg+PLjrYQN9oA/LbZLflROf1sEewvawQfAgeFhu17j24K6HjTn0EXvqW5PftZ/+9vCVh4058LB895jHWmyAB+uH1U+Na/TRFq/AAzxq6Nr2wfrRFq/AAzysRmtcs360xSvwAI8aurZ9tLB+kPwm+c2T35U54LFgtBA8bEArufbwlYeNOfBIPfWtCfCaT397+MrDxhx4WH57zGMtNsCjrU00eICHjWc1rolXbfEKPMCjhq5tH6wfbfEKPMDDarTGNetHW7wCj3p4bJPf4tSWPhLMWxrPvo8FPNDHvmsgNv/a+nj44Qe71z6+12mCO3b85q/uECvN+lUbjxj2lKVjI3ikfeTJI/AAD0++Lc0W+kAfS+Os53jRB/rw5NvSbKEP9LE0znqOtwV9bJPfY34lEieNqV9SV5xT0m5MG495rMUGeNT7xWkMR4fqgse68ch96luT4rWe/iZetcUr8ACPoTVgyn3Wj7Z4BR7gMUXPQ21ZP9riFXiAx5BWp9xn/WiLV+ABHlP0PNSW9aMer0h+V37lhSUtZK1HVuvbkmvwAI8S3qTa1Nzs5LzrW5Peeqz17m/0gT5SXC8pr6mPIftr4a7HPMCjLZ2DB3gMxbUp9z1iiYcN9IE+puhgqK0Hdz1soA/0McTxKfc9uOthA32gD6sDkt8kv7OesCd4EDxs8Khx7bHwedioqY+xT31rArzG098evvKwUROPIZ57zGMtNsCD9WNIR1Puo4+2eAUe4DFFz0NtWT/a4hV4gMeQVqfcZ/1oi1fgAR5T9DzUtoX1g+Q3yW+S35U54LFgtBA8hgLbmPsevvKwUQuPkqe+Nfld4+lvD1952KiFR4zLHvNYiw3waGsTDR7gEYttpWXEq7Z4BR7gUarlWDvWj7Z4BR7gEdNraRnrR1u8Ao96eJD8rpz4tEEGstYjq/VtyTV4gEcJb1JtPDafR3evbP4B5sGdR7N+sEqNua8cfaCPPl5Mveehj7Vw12Me4NGWzsEDPKbG2L72HrHEwwb6QB99/J56z4O7HjbQB/qYqoW+9h7c9bCBPtCH5TfJb5LfWYk0ggfBwwaPGtceC5+HDQ99kPzO16AHHh68WosN8Mjnrgfm4AEeNdZv24cHdz1soA/0Ybld49qDux420Af6qKEH24cHdz1soA/0Ybld49qDux42WtAHyW+S3yS/K3NgX4IHwfx0gfcI5iS/T/2d4p4HHh46X4sN8Mjnrgfm4AEeqRhaUu7BXQ8b6AN9lPA/1caDux420Af6SHG9pNyDux420Af6KOF/qo0Hdz1stKAPkt+VE5+WvB5E8rDRAlmtb0uuPXzlYQM89m9xJfmdjzn6yPcV8aotX4EHeJTsbVJtPHi1FhusH21pEDzAIxXfSsqJV23xCjzAo0THqTasH23xqgU8SH6T/ObJ78oc8FjAWwgeqQUnp9zDVx42PPAg+Z2/gHvg4cGrtdgAj3zuemAOHuCRsz6PrePBXQ8b6AN9jOV+Tn0P7nrYQB/oI4fvY+t4cNfDBvpAH2O5n1Pfg7seNlrQB8nvyolPS2APInnYaIGs1rcl1x6+8rABHvu3uJL8zsccfeT7injVlq/AAzxK9japNh68WosN1o+2NAge4JGKbyXlxKu2eAUe4FGi41Qb1o+2eNUCHiS/SX7z5HdlDngs4C0Ej9SCk1Pu4SsPGx54kPzOX8A98PDg1VpsgEc+dz0wBw/wyFmfx9bx4K6HDfSBPsZyP6e+B3c9bKAP9JHD97F1PLjrYQN9oI+x3M+p78FdDxst6IPkd+XEpyWwB5E8bLRAVuvbkmsPX3nYAI/9W1yvv/x49/pv73UHdx7N+sEKfeRzZJ99RbzK54mHrzxssH60hTl4gEfJGpRq4xFLPGygD/SR4npJuQd3PWygD/RRwv9UGw/uethAH+jDcp3kN8nvrEQawYPgYYNHjWuPhc/Dhoc+7v7F9e71j+91Ry8/lqXZEnw8fOVhwwMPj3msxQZ4sH6UxKNUG/TRFq/AAzxSmi0pZ/1oi1fgAR4lOk61Yf1oi1fgAR4pzZaUt7B+kPwm+Z2VSGuBrCUis20I5gRzy4ka1x76+PrPn+1e/efnuzvfezJLsyXzQh/oo4Q3qTYe+lgLdz3mAR5t6Rw8wCMVQ0vKPWKJhw30gT5K+J9q48FdDxvoA32kuF5S7sFdDxvoA31Y/pP8JvmdlUgjeBA8bPCoce2x8HnY8NDH67+5173y/q3uG7+4k6XZEnw8fOVhwwMPj3msxQZ4sH6UxKNUG/TRFq/AAzxSmi0pZ/1oi1fgAR4lOk61Yf1oi1fgAR4pzZaUt7B+kPwm+Z2VSGuBrCUis20I5gRzy4ka13Pr49pLj23e931477HNq08eu3UxS7dj54Y+0MdYzuTUn1sfMoa1cNdjHuDRls7BAzxy4ujYOh6xxMMG+kAfY7mfU9+Dux420Af6yOH72Doe3PWwgT7Qh+U+yW+S31lJNIIHwcMGjxrXHgufh4059fHAg/d33/r18903f/38Rqu3v/1E9/UPn+vkfg0Mwj48fOVhY0481F8e81iLDfBg/VDd1Dyij7Z4BR7gUVPf2hfrR1u8Ag/wUG3WPLJ+tMUr8ACPmvrWvlpYP0h+k/zOSqC1QFYVzpQjwZxgPoU/Q23n1Icku1/7zb3umTePNlqVpLckv+X+0HhK76MP9FHKnVi7OfWhdtfCXY95gEdbOgcP8NA4VvPoEUs8bKAP9FFTF9qXB3c9bKAP9KGcrnn04K6HDfSBPqwuSH6T/M5KoBE8CB42eNS49lj4PGzU1MfDj1/ojl5+rLv37o3uW/90t3vtt/e6135zt3v02umrTi7ffKR77eN7m/d/yz/AlPrSbiomHr7ysFETjyGfesxjLTbAg/VjSEdT7qOPtngFHuAxRc9DbVk/2uIVeIDHkFan3Gf9aItX4AEeU/Q81LaF9YPkN8nvcwmzC5e+3D10+cEzn2s3D85c2/Ia15euPoIN4/chv4LHWX4O+Unue/CqBI+Hr1zoHr99qbv+9avdnbevd6/8zdPdqx/d3bzbW570fv2397qv/+LZ7un/cNRJXbsRuXD5y5uktyS/5Z9gSv1v/dPz3Qs/fqp7+k+Puqt3Ht0kxGO+sWUevvKwUYKH9UXq2mMea7GxazxkTRvaiI25bzU4pm1uXQ8bLWw+c/0Rq+fhKw8b4NHWl0zwAI9Y3Ckt84glHjbQB/oo1UCsnQd3PWygD/QR43lpmQd3PWy0oA+S33ue/JYEjyTJJFkmSTNJnkkSjQ8+gAPzc+DVf77bff3DZ7uv/ezZzVPe4vOv/sPt7uZrh93DVx48k7BLLUoPPYaW4ez8nF2qj+0PQ7L2jd2EpjQ4tr+++h42Wth89s197D0PX3nYAA++LI/lfk59D+562EAf6COH72PreHDXwwb6QB9juZ9T34O7HjbQB/qwfCf5vafJ74vXHuruvXsz+2nRXT+5l3oKM7ecJynbemJ6n/G4/o2r3Wsf3z3z6hJJYNsgrdclm4S+v+KIaWWf8Yj5pa9sLb7ymMeu1w95JVDfj7yyBspaqBpLHUs0mOrTlnvY4MsAXwYs72pce3DXwwb6QB819GD78OCuhw30gT4st2tce3DXwwb6QB819GD78OCuh40W9EHye8+S32HSW774X3ri4awv/i2Q1QaCkmsPYXvYAI9lL67XXnps885uOeby2INXa7GBPpatj1xNhPXGclfWPv0BODcJPtZGOL7ccw8b6AN95PJxTD0P7nrYQB/oYwzvc+t6cNfDBvpAH7mcH1PPg7seNtAH+hjD+9y6Htz1sNGCPkh+71Hy+8ozl7rXP763+cI/5mk3EWYLZM0NELF6HsL2sAEey11cRXuiwzGJb+G0B6/WYgN9LFcfsfgdKyvl7vYH4Y/vdbJGzmEj1qctK52H7Sd2jT7QR4wfpWUe3PWwgT7QR6kGYu08uOthA32gjxjPS8s8uOthA32gj1INxNp5cNfDRgv62Ca/ZcItfcQ5LY1n6WO59Pgj3Td/9Xx3+8+eKPIreKCPpWtgzvGP0ccLP3yqk8+c49n3vsfgse++8pj/EvCQtVHWSFkrPXyySxtLwGOX/vG2DR7sr7w5tyR76AN9LImv3mNFH+jDm3NLsoc+0Ifl6zb5Hfu1wZZJJ/Ze7Wsha+0+bX8e82jBxn33fal76Se3Nh85t37IuQaPfL95YA4ey8RDn/oe+5cXolEPXq3FBvpYpj5y1qKhOlO5m7NOTrUxNPbwvocN9IE+Qs7VOvfgrocN9IE+amki7MeDux420Af6CHld69yDux420Af6qKWJsB8P7nrYaEEfJL/34LUnt9487L7xyzud/PO7UEhjzlsg65jxDtX1ELaHDfBY5uIq7xaWzxA/Y/c9eLUWG+hjmfqI8T9VVoO7skbKWilrZp+9Gjb6+g3vedhAH+gj5Fytcw/uethAH+ijlibCfjy462EDfaCPkNe1zj2462EDfaCPWpoI+/HgroeNFvRB8nvlye8vP/JA99rHd7urzz3a+2U+FFbsvAWyxsaXW+YhbA8b4LG8xfXBRx7YvOv70Sfz/sms5bQHr9ZiA30sTx+W72Ova3FX1kpZM2XttGOoZcP2G1572EAf6CPkXK1zD+562EAf6KOWJsJ+PLjrYQN9oI+Q17XOPbjrYQN9oI9amgj78eCuh40W9EHye+XJ74cuP9i9/tt7nRxDEY09b4GsY8fcV99D2B42wGN5i+tULXrwai020Mfy9NEXr8fcq8XdmE5r2YjNy8MG+kAfMQ6Wlnlw18MG+kAfpRqItfPgrocN9IE+YjwvLfPgrocN9IE+SjUQa+fBXQ8bLeiD5DfJ76ykeAtkjQWF3DIPYXvYAI/lLa6xpFoOfz14tRYb6GN5+sjRQKxOLe7GdFrLhsc8YjbQB/qI8aO0DH20xSvwAI9SLcfasX60xSvwAI+YXkvLWD/a4hV41MOD5DfJb5LflTngEaDY7NQLgqUbg7BdDh6xpFrY19C5B6/WYiMHjyE/595fi6885rEkPGI69fCVh40l4RHTo4evPGyAx/LW8xgvc8o8eLUWG+gDfeRoamwd9NEWr8ADPMZqOKc+60dbvGoBD5LflROfVoi7DuaxL/J2rLHrFsgaG19u2a7xyB1nqh54LC+YT9XiWrjrMQ/0sTx9pGJeqrwWr2I6rWUjNhcPG+gDfcQ4WFrmwV0PG+gDfZRqINbOg7seNtAH+ojxvLTMg7seNtAH+ijVQKydB3c9bLSgD5LfJL958rsyB/YleMSCdG6Zh688bOQE81hSLcdfHvNYi40cPHJ8HquzFl95zGNJeMR06uErDxtLwmMfNAgefFmO8by0zCOWeNhAH+ijVAOxdh7c9bCBPtBHjOelZR7c9bCBPtCH1QDJ78qJT+tgD2HHbMS+yNuxxq4JHgSPGD9Ky2LcLe3TtvOwkaOPqVr0mMdabOTgYXky9notvvKYx5LwiOnUw1ceNpaER0yXHr7ysAEe7K9iPC8t8+Cuhw30gT5KNRBr58FdDxvoA33EeF5a5sFdDxvoA31YDZD8JvnNk9+VOUAwbyvQtoJHLKlmA3Pftcc81mKDzU5bGlwSHjGdoo+2eAUe4NG3Vk69t6R4FZsr+kAfMX6UlqGPtngFHuBRquVYO9aPtngFHvXwIPldOfFpA8muyRr7Im/HGrtmca0nupifc8vAY3l4TNXirmNJLjdT9TzmgT6Wp48Ub1LltXgV02ktG7G5eNhAH+gjxsHSMg/uethAH+ijVAOxdh7c9bCBPtBHjOelZR7c9bCBPtBHqQZi7Ty462GjBX2Q/Cb5zZPflTmwL8EjFqRzyzx85WEjJ5jHkmo5/vKYx1ps5OCR4/NYnbX4ymMeS8IjplMPX3nYWBIe+6BB8ODLcoznpWUescTDBvpAH6UaiLXz4K6HDfSBPmI8Ly3z4K6HDfSBPqwGSH5XTnxaB3sIO2Yj9kXejjV2TfAgeMT4UVoW425pn7adh40cfUzVosc81mIjBw/Lk7HXa/GVxzyWhEdMpx6+8rCxJDxiuvTwlYcN8GB/FeN5aZkHdz1soA/0UaqBWDsP7nrYQB/oI8bz0jIP7nrYQB/ow2qA5DfJb578rswBgnlbgbYVPGJJNRuY+6495rEWG2x22tLgkvCI6RR9tMUr8ACPvrVy6r0lxavYXNEH+ojxo7QMfbTFK/AAj1Itx9qxfrTFK/CohwfJ78qJTxtIdk3W2Bd5O9bYNYtrPdHF/JxbBh7Lw2OqFncdS3K5marnMQ/0sTx9pHiTKq/Fq5hOa9mIzcXDBvpAHzEOlpZ5cNfDBvpAH6UaiLXz4K6HDfSBPmI8Ly3z4K6HDfSBPko1EGvnwV0PGy3og+Q3yW+e/K7MgX0JHrEgnVvm4SsPGznBPJZUy/GXxzzWYiMHjxyfx+qsxVce81gSHjGdevjKw8aS8NgHDYIHX5ZjPC8t84glHjbQB/oo1UCsnQd3PWygD/QR43lpmQd3PWygD/RhNUDyu3Li0zrYQ9gxG7Ev8nassWuCB8Ejxo/Sshh3S/u07Txs5OhjqhY95rEWGzl4WJ6MvV6LrzzmsSQ8Yjr18JWHjSXhEdOlh688bIAH+6sYz0vLPLjrYQN9oI9SDcTaeXDXwwb6QB8xnpeWeXDXwwb6QB9WAyS/SX7z5HdlDhDM2wq0reARS6rZwNx37TGPtdhgs9OWBpeER0yn6KMtXoEHePStlVPvLSlexeaKPtBHjB+lZeijLV6BB3iUajnWjvWjLV6BRz08SH5XTnzaQLJrssa+yNuxxq5ZXOuJLubn3DLwWB4eU7W461iSy81UPY95oI/l6SPFm1R5LV7FdFrLRmwuHjbQB/qIcbC0zIO7HjbQB/oo1UCsnQd3PWygD/QR43lpmQd3PWygD/RRqoFYOw/uethoQR8kv0l+8+R3ZQ7sS/CIBencMg9fedjICeaxpFqOvzzmsRYbOXjk+DxWZy2+8pjHkvCI6dTDVx42loTHPmgQPPiyHON5aZlHLPGwgT7QR6kGYu08uOthA32gjxjPS8s8uOthA32gD6sBkt+VE5/WwR7CjtmIfZG3Y41dEzwIHjF+lJbFuFvap23nYSNHH1O16DGPtdjIwcPyZOz1WnzlMY8l4RHTqYevPGwsCY+YLj185WEDPNhfxXheWubBXQ8b6AN9lGog1s6Dux420Af6iPG8tMyDux420Af6sBog+U3ymye/K3OAYN5WoG0Fj1hSzQbmvmuPeazFBpudtjS4JDxiOkUfbfEKPMCjb62cem9J8So2V/SBPmL8KC1DH23xCjzAo1TLsXasH23xCjzq4UHyu3Li0waSXZM19kXejjV2zeJaT3QxP+eWgcfy8JiqxV3Hklxupup5zAN9LE8fKd6kymvxKqbTWjZic/GwgT7QR4yDpWUe3PWwgT7QR6kGYu08uOthA32gjxjPS8s8uOthA32gj1INxNp5cNfDRgv6IPlN8psnvytzYF+CRyxI55Z5+MrDRk4wjyXVcvzlMY+12MjBI8fnsTpr8ZXHPJaER0ynHr7ysLEkPPZBg+DBl+UYz0vLPGKJhw30gT5KNRBr58FdDxvoA33EeF5a5sFdDxvoA31YDWyT30LAlj5C1pbGs9SxXLr6SPf6b+91cpwyB/BAH1P4s/a2OfqopcW1+7LG/HLwqGGHPvLi4pLw2AedLgmPfdAYeOTFES8ugAd4eHFtiXbQB/pYIm+9xow+0IcX15ZopwV9bJPfNiseuxZnx8prlIlzavQT68NjHru2EXuKLeYbWwYe/HJmOVHjetf6qDEH6SNHH1O1uBZfecwjB4+p2HvMYy02loRHTKfg0dY6CB7gMTWO97VfUrzqG7/eQx/oQ7lQ84g+2uIVeIBHTX1rX6wfbfEKPOrhQfK78isvNGjocddkfeDC/d1Trx12ctQxlRxZXOuJrsT/tg14LA+PqVrcdSyxHCy99pgH+liePkr5pO1q8Sqm01o2dMx9Rw8b6AN99HFv6j0P7nrYQB/oY6oW+tp7cNfDBvpAH338nnrPg7seNtAH+piqhb72Htz1sNGCPlyT3++9917HBx/sCwcuXrw46QeHvuCn9zR47IsvmSdxY5cc6NNyzU3CLueGbbS1FA5YHdbUoK6tS/EF40S3S+KA1a7qLeeo+91Y3SX5grGi3SEOlOgkRx+hdoZsc393vByL+9i9D9juDlt8P973Y/UQxjc5T+nDPfl9+/bt7saNG4v7HB0dLW7MS/TzGsYsHJdgN1W8VszhtW52xA6aWl48WQPP92EOMS2nFtdQr6lzdIyG90FPpXMc0mFNDapG0SJaLOUp7c5zZ0i7qreco+53Y3XR7Xnfw8fl+GSKTnL0EWoHrbTDi1Lcx+59wLwdzInLw1iU6iGMb3Ke0od78ltAv3r16uI+ly9fXtyYl+jnNYz5+vXrrslvNLW8eLIGnu/DHGJaTi2udjGOXcvGFB2j433QVMkch3RYU4OqT7SIDks4Spt+3gxpV/WWc8xJ7qHbfv/Dy2X4ZYpOcvQR6gyttMOJUtzH7n3AvB3MicnDWJTqIYxvcp7SB8nvzEQ8ye9hsiLks76pJV4r5vBaNzssaGd9DxfxR00OxLScWlxDvabO0TG8rcnbtfU1pMOaGlSNokW0uDb97HI+XtaW2gAAIABJREFUQ9pVveUcdb8bq4tu0e0ueT7V9hSd5Ogj1A5aaUcrpbiP3fuAeTuYT40Va25fqocwvsl5Sh8kv0l+80R7JgdyA04t8Voxh9e62WFBY0HL5SX1xnMlpuXU4hrqNXWOjsdjA5/3x2dDOqypQdUoWtwfXhFD5sd6SLuqt5yj7ndjddHt/Fiil/l8PEUnOfoItYNW5sNxrEZKcR+79wHzdjAfy5F9ql+qhzC+yXlKHyS/MxOfPPlN4MgNQLXEa8UcXutmhwUNXubyknrjuRLTcmpxDfWaOkfH47GBz/vjsyEd1tSgahQt7g+viCHzYz2kXdVbzlH3u7G66HZ+LNHLfD6eopMcfYTaQSvz4ThWI6W4j937gHk7mI/lyD7VL9VDGN/kPKWPZpPfB0dXu5tfOeyeeeuwe+6da5uPnMs9KfMmA8lvf597Y1zLXi3xWjGH17rZGbOgoSk4XIvj+9JPTMupxTXUa+ocHaPNfdFUyTyHdFhTg6pRtIgWSzhKm37eDGlX9ZZz1P1urC667fc/vFyGX6boJEcfoXbQSjucKMV97N5nDOYaM27cvLnJtb3x1p93fZ9bz9x2ycWRf2uHr8qNuY6legjjm5yn9NFc8vvg8KC79eph98JPr3Uv/eyo9yNlUkfqzgWA7Rfx7Y/4LPZjr2uJ14o5vNbNTs6Chqbg7lgOU/+YMzEtpxbXUK+pc3SMRtHcMAeGdFhTg6pRtDiMAxzFN2M5MKRd1VvOUfe7sbroFm6O5WZL9afoJEcfoXbQSjtaKcV97N4nB3PVw81bT3d/8/N/6v7+n367ybH9/OPfdX2fl776NZccHPm3dviqHJnrWKqHML7JeUofTSW/D5846J77/mFvwrsvES51pc1cIIT9Ir79EV+Ie8l5LfFaMYfXutlJLWhoCt6WcJg2x7yJaTm1uIZ6TZ2jY3SK5oY5MKTDmhpUjaLFYRzgKL4Zy4Eh7areco66343VRbdwcyw3W6o/RSc5+gi1g1ba0Uop7mP3PinMQy1I4luS3SS/2+FJiM+az0v1EMY3OU/po5nktzydOibxrclwaePxBDjJb4JAbsCpJV4r5vBaNzuxBQ1NlXP2zY/+2H32+w+6u1euuPy4lsst6pVjWuK7mJZTi2uo19Q5Oi7HFa2W+65EE7toM6TDmhpUjaLFcj6hxXLfza2rXGxy6+WOd0i7qreco+53Y3XR7dWuNna5GE+tlzvu3HpTx7OL9lN0kqOPUDv7qhXLH3u9JNzH7n1imIfzlqe+9SnvtSa/c3HPraf+s/XttdbrO46p29d+LfemxMEwxqX00UzyW15jogntsUdpOwT84Y2r3e3vHHZ33zt5VcpB2eY0lvwW0v7rf/3vZz6fvP/K4JiGxlrj/t33/7AZx2cfvX3O/pUrr3Tv/v6PXV9ZDdtT+tBx78pvU8Zu29YSbyhke66bndiCtmRNiU+vvPXpGU15JqPnWIiuXHm7+/Dzs7Hiw7fWmVxfi55jWk4trlazseu16lh5YNfHWrzfrmn8UHVuvVffr3lNralB1SdaLNsjo8V+v7Wy7ufuaXLr2X3v0HVsDVXNpY66343V2yfdfvb5H7p3Xzy7d1yy/nI5l1sv5KK0sfuPFtfEKTrJ0UeonX3SimAv+80+fZTwKeRWjfNS3MfufWKY6zz0dSe1kt9e+bcxuYE+Huj8w2NuvbBNyKcx7cfUDe3lni8lBsp8SvUQxjc5T+mjieS3/CO+vnd8P/Xdy92Vew+e+fQlxqVt3z/BfPLOQffV3zzR3XrtODn+4k+Pupd/fnTuS2IOgVLJ71B8V178oPvk8z92u1hg9QuvBvxwbluB9STGw3re5zquDz/6dBVP29YSrxVzeK2bnaEFbemaEh5/9vmn3ZvBk9eSDPfSVLiI5epBv+T2JfZUl7bszY/Of4nJtRerFxtLrF1OWarvNek5puXU4hrqNXW+ah2TmC7ac8S0uE8aFD8M6bCmBlWjaLE/iRvj4z6XxbTove7HcMjd0+TWi9kKy4a0q3rLOep+N1Z3n3Sr3zFbfJApxD73PJdzufVCu7aN+s7ru0Q4ltj5FJ3k6CPUzqq1Yr43xnx+jhsnDyjZ72mxPqaWleI+du8zhHnO+DUZbo+xd37vKv+WMx9bJ7aG27qxa8unWF3PMjuuVmOg+KRUD2F8k/OUPppIft94pf+p79vvPt49+cbF7uJT928+ct6X/JZ70oclk9yT5Pf1F4/fC37n+9e6V341f/JbxrEh2w6SzJuk4e8/7T6UJ7zNIqBJqdY2TJLU3Iz15EcDz4XHcqbGdS3xWjGH17rZGVrQlqwpXYh2uTm1i0UOL3Tclr/H/J4nyT00rqGxDNUfcz/V95r0HNNyanEN9Zo6X6OOhVPH6xGvDxqjr5y6+6RB8ceQDmtqUDWKFkl+52hQ6wxpcRfrvo6p75i7p8mt12ej796QdlVvOUfd78bq7ptulXe73Cf34V1yL5dzufXCMfS12dzbwffzcFz2fIpOcvQRamfVWjF5D+vn8NpyQzVlv8OFbWqfl+I+du8zhLnO59k7d7vv/uWPej826a3XseT3LvNvOqfcYy3cLZ9y7c9dr29cLcZA8UOpHsL4JucpfTSR/L797WuDSW1JbOvT30OJb7kvfVgC3Xjl+MnvJ1846I5uHXTP//Coe+XXR5tzuQ4/tq29HvXk98DrRfTXFv0TrPBpcbGnyelteRDEtUwS1/o0idSzCe5tsuEkkRwmusM+dH56r8+m1FGBnLF58iTfmXvBWLd9n4xh2/fAE4BqQ8cSjnk7BtM2JWbta2vbjE/bv6mviQn6T+Gk8xs61hKvFXN4rZudoQVtyZrShcjyoM/fKaz6cP7eP/e/z1vrynu+w3O1G7MVakE5J19KlIe5X1CsDekr3Ihpf7E4MDSWMfM4a/P4dS3WZjhP7VuOG9999PZ27hbHPt8O3jv5gqLzVps27mn72nqOaTm1uIZ6TZ2vUcfCBeGiXeeUK4qp5VWIreJq370f3g/Pt/z7/QddDhdK9LW1YdfiCutijk9S+g7HF/anft+WB2te9N6ONShjG9JhTQ2qRtHi8avzRBto8fg1gaHmQp+E93VtGrvuq0a1fdj/GV3a/bRJ3tXqx8ZTGYPdlwzFdKlrP0PaVb3lHHW/G6u7j7rdrK/BdxuLne6llVvhvm5bN8GrPvylv7CvTR3zWr+wfJfc3M7z5K9IdSx2X5riuLZTX4Y61bLYXsbqwl5P0UmOPkLtrForgR6sjy0XwuuhWK59pPihffXtO7WPvmMp7mP3PkOY65gkka1J7dxjPPntn3/L1aFiJd8rYriH9cRP2n9fDJByWz+8lh/DtV141NzAmbpBDjEcXxhzFDfb7yfvv33u9cZh3+E8WouBMrZSPYTxTc5T+mgi+f3cX0xPfksfSgY93vjKqfjkCfDYR9sMHUclv/VJZvPKhvA9bSqicBN59/1Pt+9xs+V6LaJRsejGJiTwZjNkvoTrJkT7OFt/2Kb4QkRzxmawUdJ++sZhn3rZ2jZfuHVB0TFuxm/eZ3e+r5NkXFBP+z/tJ29eOgfF/bytk/ekm3Fr/b5jLfFaMYfXutkZWtDWoCnhncUn9HcOVsrfsB/bTvq0PDy3WGw0ffr0tvIt1K/qQDnY1284fnsu45I597U/1fwxH89o8uRLx5k5Dvz5np173zzCuW/Lgy/affPUuVg/Ll3PMS2nFtdQr6nzteo4XI+UI3pUbsW4bPkqbS3HQr5KeZ/mN+0q6kttbHVZaV3M8clmLgP67vPP0jUocxrSYU0NqkbR4vH/q9E4r+sKWpQvv6c/BAsvh7RoY5TW7TvG9v1SX2PNmb3GSbxRbKTelH40jqm9M7Yy9j5989J7Q9pVveUcdb8bq7uXut3w4HRfGq6FytUz2L5/+ldYubzK25ce62LI1i65GfpEOHkcx86/UtHj+7lqou84RSc5+gi1s2qtFCa/N9wY2FfZtU/3aWGc3Oop+K7Uh7O9V4r72L3PEOY6nurJ7x3k3xSX2HcKme+5mDCAu62XE8csJ8Jr9XXfGEJbufOQvb3NGfTxMOxbbLcaA2VspXoI45ucp/Sx6uR3SLRY4lvKwrp956nktxAw/ISbACVymNQSG8cb5NONi7UbElT7sEI6/mJ7upCHyYZtm5PFYHsdCc6hTRmPFc32nllgwnpqJ2e+dvz6peGs/443VtqfLkSf/P70vepjfDk0hzHjtliF17XEa8UcXutmZ2hBmyv5Hc5zTk2JHQ3soqvwS56U5WK14aXhqrYNOWZ5WMJn/bKhPN2M03w5Cf0XnmvbcExaHo5Nx56KA9rfmbGc/Joc3usbo7aVsYS2dTxabvuRclt/6XqOaTm1uIZ6TZ2vVcfCh3Bd3GjZrkfmh8WQQ8r3UBdhuXAu1Or2+pzmz385Vz6H/am9lL6szSG7YT3t2+omXLu0Tsr+PmlQfDukw5oaVI2ixdN/pNenDbR49v+R9Gkx1LTGmdxj7x7cxDPpK8Smr+/SfsbGrD7b4b0h7areco66343VXbNu7Xqg/tX9la4pZ7A7+YFEy7SNHjd1E7xSboea1/Yh/+w4tM7Q0ZObMk+7Bwnno2uu9VNKw+EctA+LU+ijIV/o/Sk6ydFHqJ01a8ViHT4tG+pD/G6vle8hFxTb8J60tfwY0pPiO3QsxX3s3mcI86Fx1bw/Z64gxFCxSukwbCPz7MNd7tt61idhDOirP9T+uN3Z3F9YN2ceOuYwlh3P5eSBzSDPJ31bXYTt1F6K47H5ax8p39s+7HWpHsL4JucpfTSR/J7rFQ2hU73EJzYtCXRjYMmn1yHhLEk1cG/7DAgttuziurkOkglqW5KHQ30M2ZT+N4I0Njf3AhvbcZzcU5s6P3vU+ap4w8TmdoxmUxaOYzPHkz85V6HZeevYQ9vqSy3TtnItn9xxa/2hYy3xWjGH17rZGVrQlq6p0LfKzzNPZpxs7EN8w3PlWB9Xpe+QL8q5cDEI2+XyQvmstsXOcduzi1w4Nz1XG2HbbVnw5JWONdSM1NvMJ9DM8FjOL4Lqt9C2jif0+XY8A7+Sq81wbNvxBmOTfpai55iWU4trqNfU+Vp1HOpM+aPHLTfM+mK5HPahbYa0uuWWWZ+UzyHHt+Mo0FfIX+0njBl678zYM2KWzi/UkPRlfaJas/PR+2H7bZ8L1aDMf0iHNTWoGkWLp6+usLw7w+eTH1PR4tmHM4Svueu+xgmJHboOyzG1V93YCOJWzX7COKZxMxxbeG7jj44jPA5pV/WWc9T9bqzuXurWPFxxBrsTfW74ZNZDwSesG+IVJmYU/z6cz9RL2FJ7IXdKOB6OWccW9hme65jDNjKO7Xo48vtqbA7bPhN7mdDP9nyKTnL0EWpn1Vox+5zQz5YL9lr3T8odaVvKs9Bu7LwU97F7nyHMD9/8Xnft4z9U+QzN0yv/lqvDHNxlLrae3gvjTCyO9bVXjoX7Ju1Xc1I581BehlyVfvra2nFs6zQWA2X8pXoI45ucp/TRRPJ7rn/OJ47Uj5f41N6ZjUHiF3hpo4IIhXTcx/FT3VuyJhbX8MuJjkXuiVg/fOvsL0Ipm9J+Ixpj0wpJ6oV2h0Sp49GjzC8MIvY8FPVp/8dzkLJjO8f+kTFpMMmel9kQ5o5bxz90rCVeK+bwWjc7Qwva0jVlfbvl/8nGJherPq5K32H74/OzCeqwXVjXjiu8Vt6FvNV7ys2wfnges3Emlpx8yQiTW9LPRh/Bpk/tnhlLRhzSMel4RiW/V6jnmJZTi2uo19T5WnV8GrdPnybdciyXywFvU1qVvkPtbm0Ffeg9PZboa2NjhnVxG+dM3zn6lvns25paU4OqUbR4um8+x7tAR2jxOKb1rrUnPxAn1/2TekP7ftF0XzxTrev6rGOY2o+1p/uAcB8hdcZ8Ymuoai511P1urN4+6tbqs48riqF8v9LkisU5xPPMehjoPawj52E9LeuztWtu9vok+OFIxxzjeGoOueu2+qnvOEUnOfoItbNqrQTfg6yfLRfsteIcciGHH2LH9mVtD12X4j527zOEuU1+H/76s+7K333aXfvN/7VNiB/843/pHn33l93jf/sft/f6EuZDc/TKv+Xq0GLVh7vFVOuMWWOtnW2fPRwN6+bMY4iXfW3DvhWjMH4P9aV15Ziaf59daWfXqLDPvvNSPYTxTc5T+mgi+X1wdLV74afn3/v91Hcvb//ZZeyfXkpb6aPPkXrPS3xq7wyxMjbCYX3tIyRNLrE2bWxSV5MMn/+hk1eFaOIsZVPGsRGN+SLeJ6TQrooktvHfzseMVWz2lR2L8w/du2990H2iCdCTeX34ljx5c5q8zJ6XsZ0zbsUmdqwlXivm8Fo3O0ML2tI11effY1z1x6Dh1xiEbfu4quXK7Q13IxzP5YXWCzdOYmtjp2ex03HIUdv2aaYkDmh/4Vj0Xp+Ns2M5/oFJ6oW61jraz9m+T35YM5o6ntv5sqXoOabl1OIa6jV1vlYd9/HnlEcnvDDaC/mudXO1KvX7NK+c7eN+aG+79iTGpOPR8Q3ZDecfG4P2k2tf+9oHDYpvhnRYU4OqUbR4upcOtaEcVe5vyoxOrPbstfSh3F2zFmWem7mn1v0gCaf+tT4f6if0bfaet2c8YT/bcZ+s4zGsdLyp45B2VW85R93vxurum277sLFYhtgIR44fgjr+0SaLV5HvrpanQ7Z2zc0+n4Rj6vNjOBc5D+trWTj/3HVb2/Ydp+gkRx+hdlatlZ4Yp/62XLDXyoWz+6rp3zXVft+xFPexe58hzMPk95W/+Zfu/lsvdF964nZ34WtvdYf//H9skt33X39uc+/h197Z3+R37lodfAc+xy8Tg0M+hHVz4oly1e6j9L7m+cRG2LfaDGOatrF9aV05hvX1fu0YKP2W6iGMb3Ke0kcTyW+Z8K1XD7uXfnZU9JG2CsbQ8d5fX+tin6F2ej/1zu/wF/UtcQMRCEnCjYf0u0kAnXx5EGKF5fpLjP7KtO3TfNkIySd9bq4Duzp+7W/z63+mTWm7EY2x2Sckazc538gTBRvfmECj8//wo0+3yfvT+UpS//QfuaR8uZ1X0EbuaX8hDnIvxEnrxY61xGvFHF7rZmdoQZPxLVVTx4H49MeMDQb6A07AxRTHpF0fVxU7Debyg1C42elrl2NraAFR7upTWlv7mzmdzrPXho0LPX6Q/qStxgq5HhpLrw3RYuDX0GfbsQflfX1rfLF+3M51oXqOaTm1uIZ6TZ2vUcdbXvbE2WOO5ie/x2g15K/yT8dyLrYX6mtjI9CE9N9nd6PLYP4p/fXpTcee0vdaNSjzH9JhTQ2qRtFiPPmNFvPW2q2WgwczhMvH94/X/dy9arhv3/Rh45a9PtlfhzFD4lOqH+nbxrFUzJI2sc+QdlVvOUfd78bq7pNulTdhgsNiJ+vBh+8f//NaKVPdvvviafI7hw+9+PfwbciWjlX3hrpOeXHT8nmryzHrcs98P/n8j9s997ZPsyfYrP+RZGyomyk6ydFHqJ1VayXib8sFe9333UYw6tVA5HtTiGvqvBT3sXufIcw1+X31Z//LJsF9+S9/sUlwP/jKv+8efOn1bbL7vlsvdKXJ71juTcpSPsrNv+XqMBf3sF5uHAtzgWfa6195mRihcz9bN++70aaN2V/IPRvXw77F3tZPjcVAGVupHsL4JucpfTST/D44POie+/74BLi0kbZKoLmOKfEJ2cKP3ZTIuDSAar1QJLZ8U7ZJGOmTrnli2Cy2AaFDf6j9cGx6byMWaRfYlLYb0RixWiHp2GPz2fZ/5XTjFW5+wnHKuS5CfWPVTdSm3skm3/5ilTWvhJ+GcLJjtde1xGvFHF7rZmdoQZMxLVlTir9iIEeLscwxxNlyTMr7uKp4qQ3L26F2KVvSThfIvvGea28WLdt+Mx9TZ7toGU1K31ZPQ2M5N45ABxt/WZv6RTqwafs+bnccq9S/4XHr66APHUfLeo5pObW4hnpNna9Vx4qxcDn8SFwfxWXdOAZcVX5ZjdtrrSfHkLdT9LWxEXBZ+u6zu9GlGbP1SRh/Rvnk5Au5zENi48Z+5IvfUjUovh3SYU0NqkbR4mkyc8Nfw6ktjwyv+zTQpwmpJ581a1HnKMdzejfra1hu9/3SXn34pvnnweG6ae1M6Uft3T3Zq9u+N3GzB3up1/cZ0q7qLeeo+91Y3X3Srd3rqd8tdnKt6659+ELrpnglfae0KnVitmpxXMc8hpvhuLa+MGu3jD8cYx/Hw3KrrzHrtmJlj1N0kqOPUDtr1sqQNpSj4X6rj08h18PvnCH+ffzo68ti3HddivvYvc8Q5pr8fuyvf7tJfl95/3/eJLwffvV73QO3X6mS/O6b95h7qfybYpqrwz6s+nC39UIO2Bgg87H1w2s51/gTHjXHFdbNnYfaDPuzrzfuq7Phb4MxUMZaqocwvsl5Sh/NJL9l0odPjEuAS+Jb2kjbuT8x8c1tm/7nx7emj2uJ14o5vNbNztCCpvNBU8vijuLGsQ3cYlpOLa6hXlPn6LgNvNFdmzgM6bCmBlWjaLFNDuyrNsMvxUv0wZB2VW85R93vxuqi23G6XTqvlqiF2Jin6CRHH6F20Mo4rcRwm1pWivvYvc8Q5pr81ie/5d3e8j7vC6/8affgi681n/ye6v+1tR9KnC9lnqV6COObnKf0sU1+S/Cc+zMkvhAUeVpVXtfQ9w5wfS2KlEkdjye+dWwkv9tZLBSTVo9WvHPqCk3By1Z1sIZxeWkZHaPjNehlrjmEOpxzPZW+0SJanIvHJf0uPUkZale+lM6lX3Q7TrdL51WJllpu46UT1rhxOpmbMyHuc8XGGOaa/JZ/cPnAna91X37h1c0/t5T3fF/67t+S/HZ4uLYmx/S1UvYvw2ramLMvLz1sk982ax67TmXUh9rmbE7UqfIP+25+5bB75q3D7rl3rm0+ci73Uv/cUvuoeST53daCURPb2n2F4h3SwtT7sphJH2gKXtbmL/2dciqm5dJ1sE/76PjU5/APX1gODOmwpgZVl2gR/ln+7fJ66UnKIe2q3nKOut+N1UW343S7dF7tUpNz2J6ikxx9hNpBK+O0Mgfe2mcp7mP3PkOYb5PfH/9hk+g++Mf/0smrTw4/+j+3iW95EvyxH/1T9/jf/scz9+R++NE51T6Sf+vnq7yGJXw1T+yVdLUxmau/Uj2E8U3OU/poNvk9l2NL+0V8/eIr9eea29USrxVzeK2bnaEFbQn+RVNoqnWexrScWlxDvabO0TFaaF0LuxzfkA5ralA1ihbR4i65bm0vPUk5pF3VW85R97uxuuh2nG6Xziurk6VfT9FJjj5C7aCVcVqZk1uluI/d+wxhbpPfYTJ77PlcfiJXMMxXiePhO7/1HeJzYTF3v6V6COObnKf0QfI7808aEN+w+OYWw9L6ryVeK+bwWjc7QwvaEnyGptBU6zyNaTm1uIZ6TZ2jY7TQuhZ2Ob4hHdbUoGoULaLFXXJ9bbaHtKt6yznqfjdWF92i2yVrZ4pOcvQRagettKOVUtzH7n3AvB3Mlxyn5h57qR7C+CbnKX2Q/Cb5Pfs/C51bLK31X0u8VszhtW52WNBY0Frj/5rGE9NyanEN9Zo6R8foeE26qT2XIR3W1KBqFC2ixdr83ef+hrSress56n43Vhfdotsl62yKTnL0EWoHrbSjlVLcx+59wLwdzJccp+Yee6kewvgm5yl9kPwm+U3yO5MDuaKvJV4r5vBaNzssaCxoubyk3niuxLScWlxDvabO0fF4bODz/vhsSIc1NagaRYv7wytiyPxYD2lX9ZZz1P1urC66nR9L9DKfj6foJEcfoXbQynw4jtVIKe5j9z5g3g7mYzmyT/VL9RDGNzlP6YPkd2bik1c0EDhyA1At8Voxh9e62WFBg5e5vKTeeK7EtJxaXEO9ps7R8Xhs4PP++GxIhzU1qBpFi/vDK2LI/FgPaVf1lnPU/W6sLrqdH0v0Mp+Pp+gkRx+hdtDKfDiO1Ugp7mP3PmDeDuZjObJP9Uv1EMY3OU/pg+Q3yW+e/M7kQG4AqiVeK+bwWjc7LGgsaLm8pN54rsS0nFpcQ72mztHxeGzg8/74bEiHNTWoGkWL+8MrYsj8WA9pV/WWc9T9bqwuup0fS/Qyn4+n6CRHH6F20Mp8OI7VSCnuY/c+YN4O5mM5sk/1S/UQxjc5T+nDPfl9+/btTia3tM/R0dHixrw0H69lvMJxWWguXrzYWUHWutbNjthBU8uJJzduLGesa9HjlHnEtJxaXMdoHR23pQt02hYeQzqsqUHVK1psC/uh+I1Gl4HTkHZVbzlH3e/G6qLbZfBhSM/7fn+KTnL0EWpnDVpZS/wvxX3s3mcNmLcWI9bCwZb8WqqHML7JeUof7slvESAfPx+883d/3skHn/v5XH3tlfxWexz9MR7r82//6lW0uMA1oE/LqcXVLsax67E8ov68Wn/7Z3/W/eBv3kGrjWnV6rCmBlWfaGtebdXw74//6kfdt/+RtbSGL736sNpVveUcc5J7XvPYVzt8l/SJiyU6ydFHqLM1cPi7v3ij++Ff/2A1e7SxuI/d+6wB85bmwB5k3ng4Vg9hfJPzlD5ck98yGT5+Prh06VL3tQ+e23zkHN/7+X6qcK2Q7bVudsDUF9Mp/r7xymH3+m/vdXKc0g9t/TG3+stZXPvaDN0DU39Mh3x++cqj3Td/9Xz38ntPo9PG9mxWP6kNrq2fcz3EC+63o9Fn3nhis5YePvM4Gm1Mo0M6ydHeUB3d7w6Vy/0hu9yfrlu+S073YS4PYxwfKsvRR9g2dyyt1rtydLl77Td3u7tv31yN7kN8cs7H7n1axXKp42IPMm9MzNFArE5KH67J79hAbdnYYG7b51ynnJPTR6rOLm0cPP/o5guCJNzkPDXWWDl4fCnbfx6Yg8ey8Ljvvvu6r/797Y0e5SjXMb31lXkgsaEjAAAgAElEQVTwai020Mey9NHH97H3anH3xjevbtfNR5985IxOa9mIzc3DBvpAHzEOlpZ5cPfhiw913/jlnY1GX/jhzTP6LB23bYc+0IflRI1rD33MYcN+l0Qf6KOGHmwfudx99jvHP35KAvzCo18etQbk2rBjG3ONPtatjwcevP/cHsSDV2ux0YI+SH5/KV+kY4Kf1t0VWcNkmyS/SxNuOo8WyKpjmXLcFR5TxtzXFjzydeuBeQqP8MtD6Y9RHvNYi40UHn2aGntvLb7ymMdS8Ag3taJTm1zz8JWHjaXgkdKkh688bIBH/np+67Vr2x+nRKP2B6oUZ3LKwSMfD/TRlq9q49H3XfLxxx8flXDM0ZytU3setn+5XouNfYpXkuyWpLfEfvlIIrwP26F7HpjvEx5Dfs69v0Q8wgdkdA/iMY+12GhBHyS/V5r8tsk2EeiUp79bIGtuMI3VI3ise6Peh70H5jF92C8PosWSH6M85rEWGzE8+jhScm8tvvKYx1LwsJta3dgqPzx85WFjKXio34eOHr7ysAEeefsS+XFKXkkkutSP/YFqiCtj7oNHHh7iU/TRlq9q49H3XfLWn4xLOI7RntatPQ/tNzyuxcY+xSt96lvj/9invz0w3yc8Qj2VnC8ND/uAjPBQ9iAe81iLjRb0QfJ7hcnvvmSbCLQk4abBrAWy6limHAke696o93HDA/OYPvq+PIgex/4Y5TGPtdiI4dHHkZJ7a/GVxzyWgEffplY3tsoPD1952FgCHurz2NHDVx42wCNvX9L345RotPbT3+CRh4doE3205auaeAx9l/z6z+4UvbovFsttWc152L71ei029iVe2ae+JfbLZ8zT3x6Y7wseqqMpx6XhMbQHuXJz2quFc3zo4SsPGy3og+T3CpPfQ8k2WSTGJtxUkC2QVccy5eghbA8b4NHWF44hPIa+PIgWx/4Y5cGrtdgYwmNK7LBt1+Irj3ksAY+hTa1oVZNrHr7ysLEEPKze+q49fOVhAzzS6/nQj1Oiz9pPf4NHGg/VI/poy1c18Zjju6TyJnWsOY8hW2uxsS/xyj71LbFfPmOe/vbAfF/wGNLVmPtLwiO2B3npx7dGvX5njI+0roevPGy0oA+S3ytLfseSbbJIjE24qehaIKuOZcrRQ9geNsCjrS8cQ3jEvjyIHsf8GOXBq7XYGMJjSuywbdfiK495tI5HbFMrOtXkmoevPGy0jofV2tC1h688bIBHej2P/TglGtUfqIa4MuY+eKTxUH+ij7Z8VQuPub5LKm9Sx1rziNlZi419iFdDT31L7JdP7tPfHpjvAx4xXY0pWxIennuQPh96+MrDRgv6IPm9suR3Ktkmi8SYhJsKsAWy6limHD2E7WEDPNr6wtGHR+rLg2hxzI9RHrxai40+PKbEjb62a/GVxzxaxyO1qRWtSnLNw1ceNlrHo09vffc8fOVhAzzi63nqxynRp/5A1ceTsffAI45H6E/00ZavauEx13fJkDux81rz2Acb+xCvhp76ltgvn9ynvz14tQ94xHQ1pmwpeHjvQfp86OErDxst6IPk94qS3znJNlkkxiTcVIAtkFXHMuXoIWwPG+DR1heOPjxyvjyIHnN/jPLg1Vps9OExJW70tV2Lrzzm0TIeOZta0ema/qlNy3j0aW3ongd3PWyAR3w9z/lxSjRa6+lv8IjjEeoRfbTlqxp4zPldMuRO7LzGPGL9S9labKw9XqWe+pbYL5+cp789MF87HildjSlfCh7ee5A+H3r4ysNGC/og+b2i5Hdusk0WidyEmwqwBbLqWKYcPYTtYQM82vrCYfHI/fIgWsz9McqDV2uxYfGYEjOG2q7FVx7zaBmP3E2taHUt/9SmZTyG9NZ334O7HjbAY3g9z/1xSvRZ6+lv8BjGw+oQfbTlqxp4zPld0vJn6LrGPIb61vtrsbH2eJV66ltiv3xynv72wHzteKh+ahyXgMcu9iB9vvXwlYeNFvRB8nslye8xyTZZJHITbirAFsiqY5ly9BC2hw3waOsLh8VjzJcH0WPOj1EevFqLDYvHlJgx1HYtvvKYR6t4jNnUik7X8k9tWsVjSGtD9z2462EDPIbX8zE/TolGazz9DR7DeFgtoo+2fDUVj7m/S1r+DF1PncdQv+H9tdhYc7zKfepbYr98Uk9/e2C+ZjxC/dQ4XwIeu9iD9PnWw1ceNlrQB8nvlSS/xybbZJHISbipAFsgq45lytFD2B42wKOtLxwhHmO/PIgWc36M8uDVWmyEeEyJF7G2a/GVxzxaxWPspla0WiO5tmtetYpHzC99ZR7c9bABHv3r+dgfp0SfNZ7+Bo9+PHalQfDww2Pu75J9HOq75xF312JjzfrIfepbYr98Uk9/e2C+Zjz6tDrlXut47GoP0udTD1952GhBHyS/V5D8vnDhwiZ5psE/95iTcFMBtkBWHcuUo4ewPWyAh9+XgRy+hXiUfHkQzaZ+jPLg1VpshHjk4FdSZy2+8phHi3iUbGpFpzWSazG+7SseMZ8MlXn4ysNGi/oY8nnsfm1flfw4JRqd+gMVeLS7v4rxb0pZbe72jaV1GyUPbojexnyX7PNL373WfdU35r57HvNYa7wa+9S3cFE+sae/waOt2N46Hrvag+wqlrSOR59f+u6l5kHyewXJb3kP6Ut/dav388r7T28WAzn21bn0xMNdH3HsvbUurnaeNa5ToqthAzzaWsBDPG5/+4leraW0KO1i3PDg1VpshHjEfDqlbC2+8phHi3g8fvvSaJ2+/JPjdVS+lE3hTqztvuIR88lQmYevPGy0qI8hn8fu1/SVJOKe//6NcxpVDfbtZ/XezVcPJukTPNrdX8X4N6WsJneHxtG6Dfk+qBqyx5d/cqv7k3+43cnxq//js+fq5X6XHPKNvd+6r+x4h6495rHWeHX08pVzPBNepr5Lvfjjpzp5uKEPE/BoK7a3jMfQHqSPg3ZfMnUPsivutoxHn0+G7qXmQfJ7BcnvGMgPXX5wk/yW4xBJcu6vdXHNmfvYOjE8xvY1VB882lrAc/CYqkUPXq3FRg4eQ9rKvb8WX3nMY0l4xHTq4SsPG0vCI6ZHD1952ACPcet5TKMxvuSWgcc4PHL9WloPPMCjlDuxdh6x3cPGvuljSvwHj7ZiyVLxsBz0mMdabLQQr7bJb3FqSx9xTkvjWepYLl19ZJP8luOUOYAH+pjCn7W3zdFHLS2u3Zc15peDRw079JEXF5eEx8OXHuqefuOok+Na8V0SHmvFIJwXeOTFEfXZ3GspeIzDQ3GZ6wgeu8fjwoUHO9GdHMFj93iEWts3POaO/6FvS873DY8SH3m2mQOP1jno6d+xtubAY+wYtsnv2K+jtkyM2Hu1r8U5tfu0/XnMY9c27K9T1ge51+DR1q+l4LE8PKZqcdexJDdWpOp5zAN9LE8fKd6kyj14tRYb6AN9pPRUUu6lj6lraWpu6AN9pDhSUu6lj5KxpdqEmkMf6CPFl5LyXH08+MgD3XP/w5OdHMfaybUxtt+wPvpYvz7CeCjYe/BqLTZa0AfJ75W/9uT+L9/fXb75SCfHMDiPPW+BrGPH3Fef4NHWorRPeNjFso+fsXtr8ZXHPIhXbekcPMAjFttKyzxiiYcN9DFOH1PX0hTfwGMcHil/Ti0Hj93jEWoOPHaPR6gp8ACPkA+1zj32Ph425tCH/QHGYx5rsTEHHpbzKV+R/F558tsSovS6BbKWjj1slxJEWLf03MMGeCxvsxN+eSjhlgev1mIDfSxPHyWaCNvU4m5Mp7VshOO25x420Af6sLyrce3BXbER02iNeaAP9FGDR7YPL31YuzWuQ82hD/RRg1O2jyXrI5wL+kAfIR9qnaOPerwi+b3y5DdPfp8VC8HjrD9iQXktvvKYR85mx/5SHPN9X5nHPNZiIwePPh+PubcWX3nMY0l4hF/yLR88fOVhY0l4WAzCaw9fedgAj3H7kphGQ36UnoPHODxK/ZzbDjx2j0eoOfDYPR6hdvYNjwuXvtx97cNnOzmGfsg5Zz1vi7vgAR45uh1bJ8Urkt8rT36HG5ax5Anr79viGs597HlKdGP766sPHm0tGOABHn06nXrPI5Z42FiSPmJrpoevPGwsCY+Yhjx85WEDPMatHzGNxviSWwYe4/DI9WtpPfDYPR6h5sBj93iEWto3PEIuhn7IOWc9b4u7S8XD/gDjMY+12GghXpH8Jvmd9ctpC2TNWdhSdQge+7fweWA+Rh/33ZePQchnj3msxcYYPEIfjzlfi6885rEkPGRT+/pv73WPXL1wbm308JWHjSXhEdOkh688bIBH/pooeDxw4f7uqdcON8cYP0rLwGMcHqV+zm0HHrvHQ9ZDWRdlfQSP3eMRamff8Ai5GPoh55z1vC3uLhUPy0GPeazFRgvxiuQ3ye9zX/D7FpAWyNo3rrH3CB77t/B5YJ6rj6/87TPd0cuPZWnOcttjHmuxkYuH9fGY67X4ymMeS8PjG7+406tTD1952FgaHkO69PCVhw3waGtfAh7gMRRzptz3iCVz2ZB9q6yLMn/0gT6m6GCobS53Qy4O9TV0P9fGUPuc++hj/fqwHPTg1VpstKAPkt8kv7MScS2QNWfRSdUheLS1KO0bHne+92QnnxRP+8rX4iuPeRCv2tL50vAY0qkHdz1sLA2Pvngo9zx85WEDPIhXQxyfct+Dux420Mfu9SGvmrjyzCWS3yNzBuijPneH9mc5sRI86uOR4/ehOkvFw3LQYx5rsdHCek7ye+RCNiTgofu7JuuUd2OFc2qBrOF4Ss93jUfpuG078GhrAc/Fw/5abHGNXa+Fux7zyMUj5u9Umcc81mJjaXgM6RQ82oq74LGfeNTa1w7F+KXFq6F5oI/91McQH2rdRx9t8Wrf8Bj6y7wcfnvExH3DI8fvQ3WWiofloMc81mKjBX2Q/F558vvLDz/Qvfabu93t7zzRPfDg/UVPnErQaoGsQ8FzzH2CR1ubtn3D48LlL3evfXy395UKKR6vxVce8yBetaXzpeEh7zU9vHe5+5J5P78Hdz1sLA2Podjo4SsPG+AxLl6R/M7zlwd3PWygjzy8JU7WxkO+N95+66i79MTD2++P4LE7PPrWwn3C4+DOo5vvUPJdqs8XqXu19dFnb5/w6Jv/mHtLxEMejpHv8SEHPeaxFhst6IPk98qT3xKELt98pHvpr26R/J5hY9gX5D0CVAvBo2/uY+95+MrDxhg8rr0kC+e9To5j/OUxj7XYGIPHGAzCumvxlcc8loyH/Km3rKGCvYevPGwsGY81ahA8xiWTSH7n+csjlnjYQB95eNdeo2Td+/qHz20+jz5J8jtce3LP0Udd7j7w0P3d1eceHfXdKcQKPOriEfq25HxpeDx46YHu1X++e+77u8c81mKjhfWc5PceJL9tQHr6T4+6i9ceGrV4tEBWO4+Sa4LH/i18HpiP1cdxAvxu99Qbh9k69JjHWmyMxWOfY4kH5kvG46nXDzdPecjTbw9fHLdutsqrJeMR+tSDux42wGPcvoTkd56/PLjrYQN95OEtsbEGHvL98N67N7vXP763eerb/tUwePjiEa55fedrx0P4KHmLvrmPvVdDHymba8cjNf8x5UvB46HHHtzyT/4y1M7RYx5rsdGCPkh+71nyWzYxm03Nb+9tjuGfslkxh9ctkDUcT+k5waOtTds+4yEbOv0R6r4H7uvCJ2v6+L0WX3nMg3jVls6Xjkf4BNxjty6e2/j26bX0Hvpoi7vg0R4eJL/zMPHgroeNpa8fuhZ4+GqKjYcfv3Dm+6HuT3X8egSPPP2Jv6bgof5OHdeKh+QnwnyF/REm5Ze+cvBoi7ut4yHfy/WHwPA1J5ZbHvNYi40W4hXJ7z1LfqtgZVOji8q3/un57oUfP7X5ZVX+pEjqyCIjXzD0c+3mwfZc7t1333299bS+HsfUE2Fbu9qPHsf01zePS1cfWcU8wCOffx68morH4b3Hutd/e2/z51Rf/btnurvfv9ndeuNad/TSle6xmxe7+++/f7OJvnDxy93l648MfqSe8L603uNPPXqm76n92bF6zeP689dWMQ/wyOez6LyU9308tTp67KmL3b2/PH4aTv7s8at/f7t75Mrxk+CPPP5Qd/j85U7eR9n3eeCBBza6fOSxC73l2kbqyTxy6sn4Suvd+soTZ8YxZny5dj3mcXT3yirmAR79+nj05HVDwjn9CK9kPyjrpRz1fniUdqopOYpOpFx4Ht6351rv4OAgq15uf331Qu6q3b564RjH1nv44YdXMQ/wOLuuxHiQy6vDu491N7910N353o3uyq1Lx+vT4w91L//k6c2+066Jci3rq+jo6tWrZ/ZXtq7Wk/2eLQuvY/XCvU+sXm5/ffUeeuih4vH19dc3X495rAWPRy4/3D37nSe7l35yq5O8hMT4F3/8VCevnpNYr8lvyQNoTqDvGKsX5gBi9cJ+x9Z7/PHHi8eXa9djHhcuXFjFPHLxeODC/d31r1/t7rx9vXvlb57efB8XDkqubOiHQN13yL5Ez+c6rsUGye9gQ2vJ0oJz7JhKrlsnqwTaq3ce3SS+ZZHRIP/knzy+WXhE+H2fLz90/GWlZj3xVc3+BK9d9Mc8znNmDr7k4rsGPB6+fGGTFLv7/Ru9elSNSj3xS8v1BI+Wx5frP+ZxXue75N8u8Lh49fg9qF/56TNRXV46PH5neE49mUdOPeFpy/WYx3l9jOFBbXyXisc3fvFs98ADeclvqSf1dT3Uo+hE/Cn+13t9R6335O2jrHq5/e2q3pXrj65iHuBxNpYoT2vxSpKNog9Zv/t0ofdk3yb1jm4eZtXL7W9X9R49uLiKeawFj0uPx+OzfJ8X/sn3SeVk33HX9Q6OrjY9vlz/PfLow6uYRy4ekvyWpLckvyUJ/vjtS92FR8+/4kQ4aD+yv7L3al+vxUYL+V2e/O4hcU3CLpWskgQPf4Gc+mSr7S/sW87ll1zxVU49wae0Xvhrqdqd0t+u5gEe63ryO8bnR68/wpPfA0+7Dz2ZzpPf7TwxLU9I7QMe8k+Ywqc0w3N5olPWGXliL7xvz6WerIM59XL766vHk8bgYbkn12N42ser8KnTGv3d/csbm38O/dpv7nZXnzl+OnWzT7xwf/fUa4edfFmVcchHyqWe/DNpaRfOL/akbF89njQ+G8ti/gsxj9Xr83Puk+7gMQMez53+ld/YJ6vX8qQxT36f/SvSGA88nmDftyeNW3+Cfd/w0L1EyXGpuT47V495kPyOJJ5bcI4lRcm1B5E8bIDH+V/6hvgAHm35CjzAY0irU+578GotNlg/2tIgeIDHlNg31HaOeKVJ7T/5u+Ont4dsSHmYJB8aY8599IE+cngyts4Qd8f2E6vvYQN9oI8YB0vLPLjrYQN9oI9SDcTaeXDXw0YL+uDJ70gCPkbC3DIPInnYaIGsuT6P1fPwlYcN8GBxjfG8tMyDux420Af6KNVArJ0Hdz1soA/0EeN5adlc3N289uTk1SeDNh6Qd3rn4xqbI/rI9+MgHhW/W4EHeMT0WlrmwV0PG+gDfZRqINbOg7seNtAH+rA8J/ldcYNmnSvXHsL2sEHwIHj08XvqPQ/uethAH+hjqhb62ntw18MG+kAfffyees+Dux420EeePm69edh98x/vbF7JJ+96ldfOfeMfn+vk/lQuhe3BIw8P8Rn6aMtX4AEeYSyrde7Bq7XYYP1oS4PgAR42DpL8Jvmd9aWB4EHwsMGjxjWbnbZ4BR7gUUPXtg/Wj7Z4BR7gYTVa43ru9ePGNw82/4Dr6X9/7cxR7tcYv/aBPtCHcqHmcW59yFg9bKAP9FFTF9qXB3c9bKAP9KGcrnn04K6HjRb0QfKb5HfWl4YWyFojiHgI28MGeLC41tCD7cODux420Af6sNyuce3BXQ8b6AN91NCD7cODu6/KP7X8zd1N8luOcm3HMfUafaCPqRzqa++hDw8b6AN99PF76j0P7nrYQB/oY6oW+tp7cNfDRgv6IPlN8jvri0MLZO0LBmPveQjbwwZ4sLiO5X5OfQ/uethAH+gjh+9j63hw18MG+kAfY7mfU9+Du0+/ebRJfMtrT+Tz1Ot1X3ki80Qf6COH72PreOjDwwb6QB9juZ9T34O7HjbQB/rI4fvYOh7c9bDRgj5IfpP8JvldmQP7EjzGBu6++h6+8rDRQjDv8+/Yex6+8rABHmw+x3I/p74Hdz1soA/0kcP3sXU8uCs2NPEtx7FjzKmPPtBHDk/G1vHSx9hxja2PPtDHWM7k1EcfbfEKPMAjR7dj67SwfpD8rpz4tCQgeBA8LCdqXLcQPGrMA32gjxo8sn2gj7Z4BR7gYTVa45r1oy1eeeERvvakBo9sH8SrtngFHuBhNVrj2ite1RhrrA/0gT5i/CgtQx9t8Qo86uGxTX6LU1v6SDBvaTz7PhbwQB/7roHY/NEH+ojxY9/L0Af62HcNxOaPPsbp41u/urN5+luOMb+WloHHODxK/ZzbDjzAI5cr+1gPfaCPfeR97pzRB/qwXNkmv8f8MiSdjKlfUlfIWtJuTBuPeazFBnjU+8VpDEeH6oIHeAxxY8p94lVbvAIP8Jii56G2rB9t8Qo8xuFx+9tPbP7ppRyHOD7lPniMw2OKr3Paggd45PBkbB32V23xCjzAY6yGc+qzfrTFqxbwIPnNa0+yvjy0QNacIJeqw+LaVhAED/BIabaknHjVFq/AAzxKdJxqw/rRFq/AAzxSmi0pZ/1oi1fgAR4lOk61Yf1oi1fgAR4pzZaUt7B+kPwm+U3yuzIHPBaMFoJHSdCzbTx85WEDPNraJIAHeNhYU+PaI5Z42EAf6KOGHmwfHtz1sIE+0Ifldo1rD+562EAf6KOGHmwfHtz1sIE+0Ifldo1rD+562GhBHyS/Kyc+LcE9iORhowWyWt+WXHv4ysMGeLC4lvA/1caDux420Af6SHG9pNyDux420Af6KOF/qo0Hd8XGs99+YvPObzmmxlRSjj7QRwlvUm289JEax9Ry9IE+pnKorz36aItX4AEefTqdeq+F9YPkN8nvrC8PLZB1quCkPcGcYF6DR7YP9NEWr8ADPKxGa1yzfrTFK/DYTzxIfufhjj7y/CRrw1p85TEP9ldt8Qo8wKPG/tb24RFLPGygD/RhuU3ym+Q3ye/KHCCYtxVowQM87MJX49qDV2uxweazLQ2CB3jUiIG2D694RfI7j79eeFge1L4mXuXhLX73wBw8wKO2xr24iz7a4i54gMcuYgnJ78qJTwuih7A9bLDZaStAgQd42FhT49ojlnjYQB/oo4YebB8e3PWwgT7Qh+V2jWsP7ooNkt95/PXCowZ3Yn0Qr/LwFh96YA4e4BHTa2mZB3c9bKAP9FGqgVg7D+562GhBHyS/SX7z5HdlDuxL8IgF6dwyD1952GghmOf6PFbPw1ceNsCDzWeM56VlHtz1sIE+0EepBmLtPLgrNkh+5/HXC48YJ2qUEa/y8BZfe2AOHuBRQ9e2Dw/uethAH+jDcrvGtQd3PWy0oA+S35UTn5bgHkTysNECWa1vS649fOVhAzxYXEv4n2rjwV0PG+gDfaS4XlLuwV0PG+gDfZTwP9XGg7tig+R3Hn+98EjxYmo58SoPb/GzB+bgAR5TNd3X3oO7HjbQB/ro4/fUex7c9bDRgj5IfpP85snvyhzYl+AxNZBLew9fedhoIZiDx+mGCzxOfZHiBfpoy1fgAR4pzZaUe/DKywbJ7zyNeOFRwscxbVjP8/AWn3pgDh7gMUa/uXU9uOthA32gj1zOj6nnwV0PGy3og+R35cSnJbIHkTxstEBW69uSaw9fedgADxbXEv6n2nhw18MG+kAfKa6XlHtw18MG+kAfJfxPtfHgrtg4vPdY9/rH9zbH1JhKytEH+ijhTaqNlz5S45hajj7Qx1QO9bVHH23xCjzAo0+nU++1sH6Q/Cb5zZPflTngsWC0EDymBkBp7+ErDxvg0dYmATzAo0Z8sn14xBIPG+gDfVhu17j24K6HDfSBPmrowfbhwV0PG+gDfVhu17j24K6HDfSBPmrowfbhwV0PGy3og+R35cQnZM0Pemv11b4ED4tfybWHrzxstBDMS/xv23j4ysMGeOTHYfBoy1fgAR42Lte49uDVWmywfrSlQfAAjxox0PZBvGqLV+ABHlajNa5ZP9riVQt4kPwm+c2T35U54LGAtxA8aixKHr7ysAEeLK419GD78OCuhw30gT4st2tce3DXwwb6GKcP3vmd5y8P7nrYQB95eEtMBY+2fAUe4FFjr2P78ODVWmywfrSlwRbwIPldOfG51gDVAlmtb0uuCeZtBUHwAI8SHafaEK/a4hV4gEdKsyXlrB9t8coLD5Lfebh74VGi3TFtWD/y8BafemAOHuAxRr+5dT2462EDfaCPXM6PqefBXQ8bLeiD5DfJb578rsyBfQkeY4L2UF0PX3nYaCGYD/l4zH0PX3nYAA82n2N4n1vXg7seNtAH+sjl/Jh6HtwVGyS/8/jrhccYjpTUJV7l4S2+9cAcPMCjRMepNh7c9bCBPtBHiusl5R7c9bDRgj5IfldOfFpCexDJw0YLZLW+Lbn28JWHDfBgcS3hf6qNB3c9bKAP9JHiekm5B3c9bKAP9FHC/1QbD+6KDZLfefz1wiPFi6nlxKs8vMXPHpiDB3hM1XRfew/uethAH+ijj99T73lw18NGC/og+U3ymye/K3NgX4LH1EAu7T185WGjhWAOHqcbLvA49UWKF+ijLV+BB3ikNFtS7sErLxskv/M04oVHCR/HtGE9z8NbfOqBOXiAxxj95tb14K6HDfSBPnI5P6aeB3c9bLSgD5LflROflsgeRPKw0QJZrW9Lrj185WEDPFhcS/ifauPBXQ8b6AN9pLheUu7BXQ8b6AN9lPA/1caDu2KD5Hcef73wSPFiajnxKg9v8bMH5uABHlM13dfeg7seNtAH+uYYDlEAACAASURBVOjj99R7Htz1sNGCPkh+k/zmye/KHNiX4DE1kEt7D1952GghmIPH6YYLPE59keIF+mjLV+ABHinNlpR78MrLBsnvPI144VHCxzFtWM/z8BafemAOHuAxRr+5dT2462EDfaCPXM6PqefBXQ8bLeiD5HflxKclsgeRPGy0QFbr25JrD1952AAPFtcS/qfaeHDXwwb6QB8prpeUe3DXwwb6KNfHe++91/HZrQ/e+dvvdG98/EInR7DYLRbi/4sXL2Y9RFMSc6UN8ao8XpX6PNYOPMAjxo/SMo+9j4cN9IE+SjUQa+fBXQ8bLeiD5DfJ76xNawtkjQWF3DIPYXvYAA8W11zOj6nnwV0PG+gDfYzhfW5dD+562EAf5fqQZN/t27e7GzdurOJzdHS0inmsBY8lzUN0QPK7PJbkrjtj6rF+gMcYvuTW9eDVWmywv2pLg+ABHjbOkfwm+U3yuzIHPBZwgjnB3AbzGtce3PWwgT7QRw092D48uOthA32U60OSfZKgvHr16io+ly9fXsU81oLHkuZx/fp1kt8jvj94xHYPG6wf5euH3VPUuAYP8KjBI9uHRyzxsIE+0IflNsnvERsX67ycaw9he9ggeBA8cvg+to4Hdz1soA/0MZb7OfU9uOthA32gjxy+j63jwV1rg+T3OpL+S0oytzpWkt/5cV1im40lY+NdTn0PG6zn+biDR1u+Ag/wyImjY+t48GotNlpYP7bJb3FqSx9xTkvj2fexgAf62HcNxOaPPtBHjB/7XoY+0MdaNDA6+X1w0F29frM7uHV785Hzq3KvkSfHefKbZH4pF8Pk95z6Zv1g/ZiTX0vvG32gj6VzeM7xow/0Yfm1TX6P+ZVDOhlTv6SukLWk3Zg2HvNYiw3waOvXUvAAjzGxLrcu8aotXoEHeORqd0w91o9yXuUmvw++9e3u8IP/FP1IndLEY612JL9JfpdyKUx+j4k/Y+sSr8rj1Vhf59QHD/DI4cnYOux32+IVeIDHWA3n1G9h/SD5zWtPsn5kaIGsOaJK1SGYE8xTHCkpRx9t8Qo8wKNEx6k2rB9t8WoXeKSS3wcnT3Uf/OUH0cS3JMaljiQetU1pEnJKO5LfJL9L+UPyOz8eytqyi3iVWtNKytlf5ePugTl4gEeJjlNtPLjrYQN9oA/LdZLfJL9JflfmAMG8rUALHuBhF74a1x68WosNNp9taRA8yvGIJb8Pr13rXv8P3zlOaI9IfksbaVuahJzSjuQ3ye9S/pD8zo8jsudgPc/311p85TEP1vO2eAUe4FHjO6btwyOWeNhoQR8kvysnPiFrftBbq6/2JXhY/EquPXzlYaOFYF7if9vGw1ceNsAjPw6DR1u+Ao+28Yglv//8nR92f/Hj90cnv6WNtB1KQh7euNrd/s5hd/e9a92tVw+7g4N6CVuS3/V8OYTfWu+T/M6PVbLX8ojtHjbYX+XjDh5t+Qo8wMN+761x7cGrtdhoYf0g+U3ymye/K3PAI0C1EDxYME43EeBx6osUL9BHW74CD/BIabak3INXu7ARS37//OPfnUt+X33/4+7Cy69391271d1/8FR3/xPPdhf///bOr9mO4sryH2jAGBkZuOheXQkBRhgJBALJYKABI/4MYTNhy4wN03gsY6LdDrs9njCDmnYET/STJ6Ij6JeZCCJm6I6J6M8x8w14rYl9rvKcvPtWVWZl5Vk3dc7v4cQ5VflnV+211s5i3aT0wg+7vV/eXL72xMxvG9tnkp59fLd79u/OdI+8uLdov/TBfvf0r/d7+/aNT53D/Mb8TnFkqB3zO3/tsBp6HPWqpHanxvC8m4+7AnPwAI+UZkvaFdxVxEAf6MPzH/O7svHpE6wQtiIGxYPi4bld41jBXUUM9IE+aujBz6HgriIG+kAfnts1jhXc9TGGzO+9vb2FgR3v/H7g53/o7jz33YXxffK5N7t7f/DT7u5nX+nuPPdY98DPfnfE/LY5vNF47vLewvx+8NLuou3xd053l3+D+e3zxLHexMf8zq/rVu98LalRA/0cihis5/m4g0dbuQIP8PA1s8axglebEqOF9QPzG/Obnd+VOaAoUC0UDxaM1UMEeKxykeIF+mgrV+ABHinNlrQreHUcMYbM78cvPnnE/L770ovdHacf7e5/97eH/vHL3Q8+XhyHf/Ay7Py2ObyJe+7ywc7vs0/udvuP7HYXfrLfXf7b/cVvO44/fmzO8Sbt/H759191n392o7u4s3Mkjzm58H38fP7Y99+2Y8zv/LXDauhx1KuS2p0aw/NuPu4KzMEDPFKaLWlXcFcRA32gD89/zO/KxqdPsELYihgUD4qH53aNYwV3FTHQB/qooQc/h4K7ihjoA314btc4VnDXxxgyvy9fff6I+X3n/ne6k8+/dcj43rvx98tjb37bHN5APffMyvy215+MffzYnOMc83tn5+3uwy++6v7xn/9l+fn8928fudaceOvqs7NzufvxZ9PM74vv/WV5P/G9fXhtp+ubT2F+W4z4Wuz3n9673FSuA4aY3/l13eqdryU1aqCfQxGD9Twfd/BoK1fgAR6+ZtY4VvBqU2K0sH5gfmN+s/O7MgcUBaqF4sGCsXqIAI9VLlK8QB9t5Qo8wCOl2ZJ2Ba+OI8YU89ve833yuTeWZndsfNvvHPM7GI32PWZ8W1vcN/d3yvwOBrEZwvGcO9c+6VozwOPry/lt9/b5F590L2fuFPfmd/ijgM9NTuyhPkdiXLrR/emLr5o0wDG/89cOq6HHUa9KandqDM+7+bgrMAcP8EhptqRdwV1FDPSBPjz/Mb8rG58+wQphK2JQPCgents1jhXcVcRAH+ijhh78HAruKmKgD/ThuV3jWMFdH2PI/O597cnlv1q87/v+n/zmkAF+/3/41eLYm999rz2JTVK1+b0wuL/4S/fjS4eN7/iabufft4P5bfldGOKN7bS368L8zq/rVu98LalRA/0cihis5/m4g0dbuQIP8PA1s8axglebEqOF9QPzG/Obnd+VOaAoUC0UDxaM1UMEeKxykeIF+mgrV+ABHinNlrQreHUcMYbM775/8PLU+39c/oOX91x9vTv56k+6u594vrtz9+Hu3rf/+sjO775/8DI2l5Xmd3jtx5RXbuzc2qUcXtsRv387zGe7xcNucuvXt/N6bJ6lGfzZje7lW68tCXH8rmnrG3Zn911Tyvz288XH8T2EueNc1bqHOG8xF1Lzh3Hh2uI8h7YcLOKY/jfmd/7aYTX0OOpVSe1OjeF5Nx93BebgAR4pzZa0K7iriIE+0IfnP+Z3ZePTJ1ghbEUMigfFw3O7xrGCu4oY6AN91NCDn0PBXUUM9IE+PLdrHCu462MMmd9mDP76D/+ts3+80n7brm57tYkZ4Hff2gFupvedDz/RnXztp93eL28eMb+9ueiPpeb3LSM795Uefpf40mC99Q9QhmMzY4NJHIzp+PUpqXksJ2ZC2zzxuHA+GOF2bHPF8RbnLt3ofnzrFS5zzO/FXLfehe5zVPseYuM63Nfn0Y78kNv43i++98lyx75vD8dxbvqwsFhjH8zv/Lpu9c7Xkho10M+hiMF6no87eLSVK/AAD18zaxwreLUpMVpYPzC/Mb/Z+V2ZA4oC1ULxYMFYPUSAxyoXKV6gj7ZyBR7gkdJsSbuCV8cRY8z8fvNHPzlifvv3fMfH8WtPbOyY0WhtT/z89OgnNb6vfeid397AtbHBIDXTdGE+33pfdjBTj5jACwP94LUpoU9s0NqcsQEd+ozNY2MWO7B73tUd78wOc3mDPM5B3+7t2GiO51vGvWXm23HIR3y9IW58btE3ysVyroF7CPkN3+GPBQcxD/5hz9T81jf+HOB58H7zcI1jWMRjh35jfuevHVZDj6NeldTu1Bied/NxV2AOHuCR0mxJu4K7ihjoA314/mN+VzY+fYIVwlbEoHhQPDy3axwruKuIgT7QRw09+DkU3FXEQB/ow3O7xrGCuz7GmPm9d/p099Jrbxza+R2b3f53ML9tjI0dMhnXeX7Q/HZmrb+GQ6b1rV3iwaz132bULg1X9+7qqfPYdXhTOlxbfD68FsSbxKGvfcex4/PhdzyfnfPHveZ3Ri765hqKucxb2EGfOX+IEWMRjP3lnCNYhOsZ+8b8zq/rVu98LalRA/0cihis5/m4g0dbuQIP8PA1s8axglebEqOF9QPzG/Obnd+VOaAoUC0UDxaM1UMEeKxykeIF+mgrV+ABHinNlrQreHUcMcbMbzMKd3d3J5vfYcyY0biutkHz+9YrPeJdx/E1xMZxjtGcY7jmzGPX4E3ocF3x+Zy54nsIc8Tf8Xx9ccfM7zHTvW+uENfHtPPxLvyc+wrXFczu1Rxu5zfm9/K/f46jlpTU1dQYxX3wvNvWMwN4gEeqLpS0K2qJIgb6QB+e/5jflY1Pn2CFsBUxKB4UD8/tGscK7ipioA/0UUMPfg4FdxUx0Af68Nyucazgro+RMr+Dibn7/dcX7/z2u73jY+sT+h/X95D5bdczZg7HbcFsHTLKba4s8zthuIcc9RnE1hafz7mm+B7C3PF3PJ+f345DjNjoDufGctE3V4jrYy7iXPukC+/4zpk/NsvDvPG95mARxo19s/M7v65bvfO1pEYN9HMoYrCe5+MOHm3lCjzAw9fMGscKXm1KjBbWD8xvzO/lzoexAtACWceuL7eN4rF9C58Cc/TRFq/AAzxy14Qp/RS1RBEDfZTrI9f8XpqGthP8wYe63UfOLz72+9St3eHLPu79zMrzY+b30iSN/nHFcG0LkzZ6Z7WZq/aKjUNGsL2i49bu4uVcid3GqXksfp9B3He+d65rnyyvMTaEw33F3z6OPx4yonvjRrnou9YQ92iMg3d8x+/nTs1v5neMRdgtHnaC52IRrmnoG/M7v47YOqOo7YoYrB/5uINHW7kCD/CY8syf21fBq02J0cL6gfmN+Y35XZkDigLVQvHIXRTG+ilypYgBHm09UIEHeIzVndI2RS1RxEAf5fqYbH4fo7E9ZFrG58fM79AvmKl9748Ofew7mLKhX2zYTjFcx+axON4gDtfQd95fe/wPYFqcYAiHOeJvP58/tr7x/PFu7zn3EPIXvuNrDteXmj9uX+Cw2D3Oa0+Gar+i7m5KDNaP8vVjiH9zzoMHeMzhz9BY6lVbvAKPenhgflc2Pn0Rgaz1yOpzW3IMHuBRwpvUGB4+2+IVeIBHSrMl7awfbfHqOPDYRvM7GK58nzr219S0hAE7v/Proa03x1GvSta51Bier/JxV2AOHuCR0mxJu4K7ihjoA314/mN+Y36z87syByjmbRVa8AAPv/DVOFbwalNi8PDZlgbBoxwPzG8M4JYM6OO8Fszv/Dpizxys5/n52pRcKe6D9bwtXoEHeNT4b0w/h6KWKGK0oA/M78rGJ2TNL3qbmqttKR4ev5JjRa4UMVoo5iX592MUuVLEAI/8OgwebeUKPNrGA/Mb8/s4DeeWYmN+59cqe9ZS1HZFDJ6v8nEHj7ZyBR7g4f+7t8axglebEqOF9QPzG/Obnd+VOaAoUC0UDxaM1UMEeKxykeIF+mgrV+ABHinNlrQreHUcMTC/Mb9bMqCP81owv/PXDquhx1GvSmp3agzPu/m4KzAHD/BIabakXcFdRQz0gT48/zG/KxufPsEKYStiUDwoHp7bNY4V3FXEQB/oo4Ye/BwK7ipioA/04bld41jBXR8D8xvz+zgN55ZiY37n13Wrd76W1KiBfg5FDNbzfNzBo61cgQd4+JpZ41jBq02J0cL6gfmN+c3O78ocUBSoFooHC8bqIQI8VrlI8QJ9tJUr8ACPlGZL2hW8Oo4YmN+Y3y0Z0Md5LZjf+WuH1dDjqFcltTs1hufdfNwVmIMHeKQ0W9Ku4K4iBvpAH57/S/PbyMGHHMABOAAH4AAcgANwAA7AgaMcwPzG/D5Ow7ml2LH5Ta04WivICTmBA3AADsABONAWB5bmt3fFx475S01bf0UBD/AY02tpm4JXmxLDFrbSPOeO25RcKe4DPNqqieABHrl1bko/RS3xMTC/Mb9bMqCP81pi83uKbqf2Zf1g/ZjKmZz+vrbnjJnaRxEDfaCPqbzM6a/griIG+kAfnu+Y35VfeeETrBC2IgbFg+LhuV3jWMFdRQz0gT5q6MHPoeCuIgb6QB+e2zWOFdz1Mcz8Pn/+fGfG3yZ89vf3N+I+NgGL2+0eTAemh5MnT671j/+sH6wfNdYLP4ev7b69xrEiBvpAHzW46udQcFcRA32gD89tzG/M76yHVooHxcMXjxrHioVPEQN9oI8aevBzKLiriIE+0Ifndo1jBXd9DDP7+Bx/Dn767s/AoREuYn7n1XdfS2rUQD+HIgbreR7ehg14tJUr8AAPXzNrHCt4tSkxWlg/ML8xvzG/K3NAUaBaKB4sGKuHCPBY5SLFC/TRVq7AAzxSmi1pV/DqOGKY0cfneHNw787p7rGf/ndwaISLJfVhyhier9pao8ADPKboN7fvcaznudc2pR/6QB9T+JLbF33U4xXmd2Xj05MYstYjq89tyTF4gEcJb1JjeNhpi1fgAR4pzZa0s360xatNwaOEi9s8Zv+lv+mufPp1d/LclazNG9ucq024d9bztuoueIDHOurKpqzn6AN9oI9hDrSgD8xvzO+s/3hogaw1igmL63BB8vndlFwp7gN9tMUr8AAPX89qHCtqiSIG+kAfNfTg51Bw98TJne7pP/7fhfn92Pv/M+v51V9n6hh9oI8UR0raFfpQxEAf6KOE/6kxCu4qYqAP9JHiekm7gruKGC3oA/Mb8zvrPx5aIGtJsfBjFMJWxAAPFlfP7RrHCu4qYqAP9FFDD34OBXcVMdAH+vDcrnGs4O6Dr/x2YXzbzu917f5GH+ijhh78HAp9KGKgD/ThuV3jWMFdRQz0gT5q6MHPoeCuIkYL+sD8xvzG/K7MgW0pHr4wlxwrcqWI0UIxL8m/H6PIlSIGePDw6bld41jBXUUM9IE+aujBz7Fu7t75zZPd5f/6/w6Z3+vY/Y0+0Ifndo3jdevDrlERA32gjxp68HMouKuIgT7Qh+d2jWMFdxUxWtAH5ndl49MTXEEkRYwWyOpzW3KsyJUiBniwuJbwPzVGwV1FDPSBPlJcL2lXcFcRA32gjxL+p8asm7vhXd9h13f4rv3ub/SBPlJcL2lftz7smhQx0Af6KOF/aoyCu4oY6AN9pLhe0q7griJGC/rA/Mb8Zud3ZQ5sS/EoKd5+jCJXihgtFHOf25JjRa4UMcCDh88S/qfGKLiriIE+0EeK6yXt6+Su7foO7/oOpnf4rr37G32gjxL+p8asUx8htiIG+kAfgW81vxXcVcRAH+ijpi7CXAruKmK0oA/M78rGZyBp+FYQSRGjBbKGnM75VuRKEQM8WFzn6GBorIK7ihjoA30McXzOeQV3FTHQB/qYo4Ohsevk7tCu72CA19z9jT7QxxDH55xfpz7CdSlioA/0EfhW81vBXUUM9IE+auoizKXgriJGC/rA/Mb8Zud3ZQ5sS/EIBXnOtyJXihgtFPM5OISxilwpYoAHD5+B0zW/FdxVxEAf6KOmLsJc6+Lu2K7vYH7X3P2NPtBH4HTN73XpI75GRQz0gT5iztX6reCuIgb6QB+1NBHPo+CuIkYL+sD8rmx8xkS13woiKWK0QFaf25JjRa4UMcCDxbWE/6kxCu4qYqAP9JHiekm7gruKGOgDfZTwPzVmXdxN7foOBnit3d/oA32kuF7Svi59xNeiiIE+0EfMuVq/FdxVxEAf6KOWJuJ5FNxVxGhBH5jfmN/s/K7MgW0pHnFRLv2tyJUiRgvFvBSDeJwiV4oY4MHDZ8zrWr8V3FXEQB/oo5Ym4nnWwd2cXd/B/K61+xt9oI+Y17V+r0Mf/toUMdAH+vC8q3Gs4K4iBvpAHzX04OdQcFcRowV9YH5XNj4ha37R29RcbUvx8PiVHCtypYjRQjEvyb8fo8iVIgZ45Ndh8GgrV+ABHr4u1zhW8GodMXJ3fQcDvMbub9aPtjQIHuBRowb6OdZRr44jBvpAH553NY7RR1u8Ao96eGB+Y36z87syBxQFioedekWwxkMCeIBHDR75ORS1RBEDfaAPz+0axwruKmKgj359TNn1HczvGru/waMfjz7Noo+2cgUe4NGn07nnFLzalBisH21pEDzAw9c/zO/KxqdPMMW8LdGBB3h4jdY4ZnFti1fgAR41dO3nYP1oi1fgsdl4TN31HQzwubu/WT/a4hV4gIdfi2scs360xSvwAI8auvZzsH60xasW8MD8xvxm53dlDigW8BaKh19gSo4VuVLEAA8W1xL+p8YouKuIgT7QR4rrJe0K7ipioI+j+rjjjju7R3/6T93jv/hfhz4X/vP/7i786v90ZnTbt2+34zOv/C7ruXaIc+BxFI+hXKGPtnIFHuAxpNU55xW82pQYrB9taRA8wMPXPszvysanTzDFvC3RgQd4eI3WOGZxbYtX4AEeNXTt52D9aItX4LGdeNy989DC/LZvr9Eax6wfbfEKPMCjhq79HKwfbfEKPMDDa7TGMetHW7xqAQ/Mb8zvrP94aIGsNYogi2tbRRA8wKOGrv0c1Ku2eAUe4OE1WuOY9aMtXqnwwPzOw12FRw0tj83B+pGHt+VQgTl4gMeYXkvbFNxVxEAf6KNUA2PjFNxVxGhBH5jfmN+Y35U5sC3FY6xI57YpcqWI0UIxz835WD9FrhQxwIOHzzGel7YpuKuIgT7QR6kGxsYpuGsxML/z+KvCY4wTNdqoV3l4W64VmIMHeNTQtZ9DwV1FDPSBPjy3axwruKuI0YI+ML8rG5+e4AoiKWK0QFaf25JjRa4UMcCDxbWE/6kxCu4qYqAP9JHiekm7gruKGOgDfZTwPzVGwV2Lgfmdx18VHilezG2nXuXhbXlWYA4e4DFX033jFdxVxEAf6KOP33PPKbiriNGCPjC/Mb/Z+V2ZA9tSPOYWchuvyJUiRgvFHDxWD1zgscpFihfoo61cgQd4pDRb0q7glSoG5neeRlR4lPBxyhjW8zy8LacKzMEDPKboN7evgruKGOgDfeRyfko/BXcVMVrQB+Z3ZePTE1lBJEWMFsjqc1tyrMiVIgZ4sLiW8D81RsFdRQz0gT5SXC9pV3BXEQN9oI8S/qfGKLhrMTC/8/irwiPFi7nt1Ks8vC3PCszBAzzmarpvvIK7ihjoA3308XvuOQV3FTFa0MfS/LYbbuljyWnperb9WsADfWy7BsbuH32gjzF+bHsb+kAf266BsftHH9P0cXLv0e7Kp1939j2W19I28JiGR2mec8eBB3jkcmUb+6EP9LGNvM+9Z/SBPjxXlub3lL9I2CRT+pf0NbKWjJsyRnEfmxIDPPhL5hRt5fZFH23xCjzAI1e7U/qxfrTFK/AAjyn6ze2rWj/Y+Z3HXxUeufwo7Ue9ysPb8qvAHDzAo1TLY+MU3FXEQB/oY4znpW0K7ipitKAPzG9ee5L1R4YWyFpaMOJxCmErYoAHi2vM61q/FdxVxEAf6KOWJuJ5FNxVxEAf6CPmda3fCu5aDMzvPP6q8KjFn6F5qFd5eFv+FJiDB3gMaXXOeQV3FTHQB/qYo4OhsQruKmK0oA/Mb8xvzO/KHNiW4jFUoKecV+RKEaOFYj4l70N9FblSxAAPHj6HOD7nvIK7ihjoA33M0cHQWAV3LQbmdx5/VXgM8aHWeepVHt6WbwXm4AEetbQdz6PgriIG+kAfMa9r/VZwVxGjBX1gflc2Pj3JFURSxGiBrD63JceKXCligAeLawn/U2MU3FXEQB/oI8X1knYFdxUx0Af6KOF/aoyCuxYD8zuPvyo8UryY2069ysPb8qzAHDzAY66m+8YruKuIgT7QRx+/555TcFcRowV9YH5jfrPzuzIHtqV4zC3kNl6RK0WMFoo5eKweuMBjlYsUL9BHW7kCD/BIabakXcErVQzM7zyNqPAo4eOUMazneXhbThWYgwd4TNFvbl8FdxUx0Af6yOX8lH4K7ipitKAPzO/KxqcnsoJIihgtkNXntuRYkStFDPBgcS3hf2qMgruKGOgDfaS4XtKu4K4iBvpAHyX8T41RcNdiYH7n8VeFR4oXc9upV3l4W54VmIMHeMzVdN94BXcVMdAH+ujj99xzCu4qYrSgD8xvzG92flfmwLYUj7mF3MYrcqWI0UIxB4/VAxd4rHKR4gX6aCtX4AEeKc2WtCt4pYqB+Z2nERUeJXycMob1PA9vy6kCc/AAjyn6ze2r4K4iBvpAH7mcn9JPwV1FjBb0gfld2fj0RFYQSRGjBbL63JYcK3KliAEeLK4l/E+NUXBXEQN9oI8U10vaFdxVxEAf6KOE/6kxCu5aDMzvPP6q8EjxYm479SoPb8uzAnPwAI+5mu4br+CuIgb6QB99/J57TsFdRYwW9IH5jfnNzu/KHNiW4jG3kNt4Ra4UMVoo5uCxeuACj1UuUrxAH23lCjzAI6XZknYFr1QxML/zNKLCo4SPU8awnufhbTlVYA4e4DFFv7l9FdxVxEAf6COX81P6KbiriNGCPjC/KxufnsgKIilitEBWn9uSY0WuFDHAg8W1hP+pMQruKmKgD/SR4npJu4K7ihjoA32U8D81RsFdi4H5ncdfFR4pXsxtp17l4W15VmAOHuAxV9N94xXcVcRAH+ijj99zzym4q4jRgj4wvzG/2fldmQPbUjzmFnIbr8iVIkYLxRw8Vg9c4LHKRYoX6KOtXIEHeKQ0W9Ku4JUqBuZ3nkZUeJTwccoY1vM8vC2nCszBAzym6De3r4K7ihjoA33kcn5KPwV3FTFa0Afmd2Xj0xNZQSRFjBbI6nNbcqzIlSIGeLC4lvA/NUbBXUUM9IE+UlwvaVdwVxEDfaCPEv6nxii4azEwv/P4q8IjxYu57dSrPLwtzwrMwQM85mq6b7yCu4oY6AN99PF77jkFdxUxWtAHEpEK7QAAIABJREFU5jfmNzu/K3NgW4rH3EJu4xW5UsRooZiDx+qBCzxWuUjxAn20lSvwAI+UZkvaFbxSxcD8ztOICo8SPk4Zw3qeh7flVIE5eIDHFP3m9lVwVxEDfaCPXM5P6afgriJGC/rA/K5sfHoiK4ikiNECWX1uS44VuVLEAA8W1xL+p8YouKuIgT7QR4rrJe0K7ipioA/0UcL/1BgFdy0G5ncef1V4pHgxt516lYe35VmBOXiAx1xN941XcFcRA32gjz5+zz2n4K4iRgv6wPzG/Gbnd2UObEvxmFvIbbwiV4oYLRRz8Fg9cIHHKhcpXqCPtnIFHuCR0mxJu4JXqhiY33kaUeFRwscpY1jP8/C2nCowBw/wmKLf3L4K7ipioA/0kcv5Kf0U3FXEaEEfmN+VjU9PZAWRFDFaIKvPbcmxIleKGODB4lrC/9QYBXcVMdAH+khxvaRdwV1FDPSBPkr4nxqj4K7FwPzO468KjxQv5rZTr/LwtjwrMAcP8Jir6b7xCu4qYqAP9NHH77nnFNxVxGhBH5jfmN/s/K7MgW0pHnMLuY1X5EoRo4ViDh6rBy7wWOUixQv00VauwAM8UpotaVfwShUD8ztPIyo8Svg4ZQzreR7ellMF5uABHlP0m9tXwV1FDPSBPnI5P6WfgruKGC3oA/O7svHpiawgkiJGC2T1uS05VuRKEQM8WFxL+J8ao+CuIgb6QB8prpe0K7iriIE+0EcJ/1NjFNy1GJjfefxV4ZHixdx26lUe3pZnBebgAR5zNd03XsFdRQz0gT76+D33nIK7ihgt6APzG/Obnd+VObAtxWNuIbfxilwpYrRQzMFj9cAFHqtcpHiBPtrKFXiAR0qzJe0KXqliYH7naUSFRwkfp4xhPc/D23KqwBw8wGOKfnP7KririIE+0Ecu56f0U3BXEaMFfWB+VzY+PZEVRFLEaIGsPrclx4pcKWKAB4trCf9TYxTcVcRAH+gjxfWSdgV3FTHQB/oo4X9qjIK7FgPzO4+/KjxSvJjbTr3Kw9vyrMAcPMBjrqb7xiu4q4iBPtBHH7/nnlNwVxGjBX1gfmN+s/O7Mge2pXjMLeQ2XpErRYwWijl4rB64wGOVixQv0EdbuQIP8EhptqRdwStVDMzvPI2o8Cjh45QxrOd5eFtOFZiDB3hM0W9uXwV3FTHQB/rI5fyUfgruKmK0oA/M78rGpyeygkiKGC2Q1ee25FiRK0UM8GBxLeF/aoyCu4oY6AN9pLhe0q7griIG+kAfJfxPjVFw12JgfufxV4VHihdz26lXeXhbnhWYgwd4zNV033gFdxUx0Af66OP33HMK7ipitKAPzG/Mb3Z+V+bAthSPuYXcxitypYjRQjEHj9UDF3iscpHiBfpoK1fgAR4pzZa0K3ilioH5nacRFR4lfJwyhvU8D2/LqQJz8ACPKfrN7avgriIG+kAfuZyf0k/BXUWMFvSB+V3Z+PREVhBJEaMFsvrclhwrcqWIAR4sriX8T41RcFcRA32gjxTXS9oV3FXEQB/oo4T/qTEK7loMzO88/qrwSPFibjv1Kg9vy7MCc/AAj7ma7huv4K4iBvpAH338nntOwV1FjBb0sTS/7YZb+lhyWrqebb8W8EAf266BsftHH+hjjB/b3oY+0Me2a2Ds/tHHNH2c3Hu0u/Lp1519j+W1tA08puFRmufcceABHrlc2cZ+6AN9bCPvc+8ZfaAPz5Wl+T3lLxI2yZT+JX2NrCXjpoxR3MemxAAP/pI5RVu5fdFHW7wCD/DI1e6UfqwfbfEKPMBjin5z+6rWD3Z+5/FXhUcuP0r7Ua/y8Lb8KjAHD/Ao1fLYOAV3FTHQB/oY43lpm4K7ihgt6APzm9eeZP2RoQWylhaMeJxC2IoY4MHiGvO61m8FdxUx0Af6qKWJeB4FdxUx0Af6iHld67eCuxYD8zuPvyo8avFnaB7qVR7elj8F5uABHkNanXNewV1FDPSBPuboYGisgruKGC3oA/Mb8xvzuzIHtqV4DBXoKecVuVLEaKGYT8n7UF9FrhQxwIOHzyGOzzmv4K4iBvpAH3N0MDRWwV2Lgfmdx18VHkN8qHWeepWHt+VbgTl4gEctbcfzKLiriIE+0EfM61q/FdxVxGhBH5jflY1PT3IFkRQxWiCrz23JsSJXihjgweJawv/UGAV3FTHQB/pIcb2kXcFdRQz0gT5K+J8ao+CuxcD8zuOvCo8UL+a2U6/y8LY8KzAHD/CYq+m+8QruKmKgD/TRx++55xTcVcRoQR+Y35jf7PyuzIFtKR5zC7mNV+RKEaOFYg4eqwcu8FjlIsUL9NFWrsADPFKaLWlX8EoVA/M7TyMqPEr4OGUM63ke3pZTBebgAR5T9JvbV8FdRQz0gT5yOT+ln4K7ihgt6APzu7Lx6YmsIJIiRgtk9bktOVbkShEDPFhcS/ifGqPgriIG+kAfKa6XtCu4q4iBPtBHCf9TYxTctRiY33n8VeGR4sXcdupVHt6WZwXm4AEeczXdN17BXUUM9IE++vg995yCu4oYLegD8xvzm53flTmwLcVjbiG38YpcKWK0UMzBY/XABR6rXKR4gT7ayhV4gEdKsyXtCl6pYmB+52lEhUcJH6eMYT3Pw9tyqsAcPMBjin5z+yq4q4iBPtBHLuen9FNwVxGjBX1gflc2Pj2RFURSxGiBrD63JceKXCligAeLawn/U2MU3FXEQB/oI8X1knYFdxUxtkkfDz/8cHfx4sUjn93d3aw//INHO7Xkrrvu6p566qnuiauvdlc+/XrxHbC1thJN943ZJn303f+Uc3P0YRoM+MXfptn4GsCjHQ0aLuABHrE+a/2eU0tyr0ERA32gj1w+Tumn4K4iRgv6wPzG/D70kDkkxBbIOnRtU84rhK2IAR4srlN4n9tXwV1FDPSBPnI5P6WfgruKGNukj5s3b3Zffvnlkc/169eznn3Ao51aYmapYflP/+NfF+a3fQdsc/+YkaP3bdJHTj7G+szRh2kw4Bd/m2bjmODRjgYNF/AAj1iftX7PqSW516CIgT7QRy4fp/RTcFcRowV9YH5jfh96yBwSYgtkHbq2KecVwlbEAA8W1ym8z+2r4K4iBvpAH7mcn9JPwV1FjG3SB+b3QS1Q8GrdMTC/8+u61bV14zE3Bub3NDxz1ioF5tu0fuTkfKwPeORzXJErRQz00Rbm4AEevkZjfmN+Y35X5gCLa1uFFjzAwy98NY4VvNqUGDx8tqXBbcID8/uAe5tQSzC/8+uIrXGtY475PQ3PnOcWBebbtH7k5HysD3jkc1yRK0UM9NEW5uABHr5GY35XNj59ghWFVhGD4kHx8NyucazgriIG+kAfNfTg51BwVxEDfaAPz+0axzncxfw+4F5OruZisu4YmN/5dcSwXDcec2Ngfk/DM0efCsxZz/NxA4+2cgUe4JFTR6f2UfBqU2K0sH5gfmN+s/O7MgcUBaqF4jF1cejrr8iVIgZ4tPVABR7g0Vdv5p5T1BJFjG3SB+b3QS1Q8GrdMTC/8+u61bp14zE3Bub3NDxz1i8F5tu0fuTkfKwPeORzXJErRQz00Rbm4AEevkZjflc2Pn2CFYVWEYPiQfHw3K5xrOCuIgb6QB819ODnUHBXEQN9oA/P7RrHOdzF/D7gXk6u5mKy7hiY3/l1xLBcNx5zY2B+T8MzR58KzFnP83EDj7ZyBR7gkVNHp/ZR8GpTYrSwfmB+Y36z87syBxQFqoXiMXVx6OuvyJUiBni09UAFHuDRV2/mnlPUEkUM9IE+5mqhb7yCuxbj7p2Huiuffr347ruOuefQB/qYy6G+8Sp99MWueQ59oI+afApzoY+2eAUe4BG0WfO7hfUD87uy8ekJQvGgeHhO1DhuoXjUuA/0gT5q8MjPgT7a4hV4gIfXaI3jGuvHv717ouNze+Xgq5/tdX/4mz929g12txd2Aa/TJ+/I2nhjdYL1g/Wjxnrh56ixfvg5/bEiBvpAH553NY4V3FXEQB/ow+sB8xvzO+sBlOJB8fDFo8axYuFTxEAf6KOGHvwcCu4qYqAP9OG5XeO4BnfNjPv++Z3uwrkHbrvP+f17b7trvh3zzDXX08YL53cWf7DA/M5fE6bUyho1MRWP9TwfO/BoK1fgAR6p+lbSruDVpsRoYf3A/Mb8xvyuzAFFgWqheJQsEH6MIleKGODR1gMVeICHrzU1jhW1RBEDfaz0Yea3mZunTp267T733XffbXfNt2OeueZ62rjwIOZ3jbVoaA7Wj1VtH8pROK/IlSIG63lbmIMHeIQaU/NbUUsUMVrQB+Z3ZePTE11BJEWMFsjqc1tyrMiVIgZ4sLiW8D81RsFdRQz0gT5SXC9pV3BXEQN9rPSB+V3P2MQkJpcpDmB+r2pPyRqUGsP6kZ9fRa4UMVjP28IcPMAjVadL2hW1RBGjBX1gfmN+s/O7Mge2pXiUFG8/RpErRYwWirnPbcmxIleKGODBw2cJ/1NjFNxVxEAfK31gfmPYpgxb2utxBPN7VXtS601JO+tHfn4VuVLEYD1vC3PwAI+S2p0ao6glihgt6APzu7Lx6cmrIJIiRgtk9bktOVbkShEDPFhcS/ifGqPgriIG+kAfKa6XtCu4q4iBPlb6wPyuZ2xiEpPLFAcwv1e1p2QNSo1h/cjPryJXihis521hDh7gkarTJe2KWqKI0YI+ML8xv9n5XZkD21I8Soq3H6PIlSJGC8Xc57bkWJErRQzw4OGzhP+pMQruKmKgj5U+Jpnf+2e63Wde7HavXe/2fvSLxcd+27lT+2fk79/mnd+YzSmzubV2zO9V7UmtNyXtrB/5+VXkShGD9bwtzMEDPEpqd2qMopYoYrSgD8zvysanJ6+CSIoYLZDV57bkWJErRQzwYHEt4X9qjIK7ihjoA32kuF7SruCuIgb6WOkjx/ze3dvrdl94s9v74ONu71f/0P/54ONFH+urMhwxvzG/VVyrFQfze1V7Stag1BjWj/z8KnKliMF63hbm4AEeqTpd0q6oJYoYLegD8xvzm53flTmwLcWjpHj7MYpcKWK0UMx9bkuOFblSxAAPHj5L+J8ao+CuIgb6WOkjaX6fOdvtvnOj3/DuMcKt76kzZyUGOOY35nctU1o1D+b3qvak1puSdtaP/PwqcqWIwXreFubgAR4ltTs1RlFLFDFa0MfS/LYbbuljyWnperb9WsADfWy7BsbuH32gjzF+bHsb+kAfrWpgzPxe7PieYHyHXeFmgCt2gCvN75d//1X3+Wc3uos7OxJjP8eMPc5r8rH9cc71b2Of2PzOrQmsH6wfuVzZxn7oA31sI+9z7xl9oA/PlaX5nfqLQ9xuk8TH6/htZF3HvPGcivvYlBjgwV8yY+3U+o0+2uIVeIBHLW3H87B+tMUr8FjhMWp+26tOenZ355yz16QMmZt7505159/Y6y6+e7p75IW9bne3bAfzmPl98b2/dP/4z/9y6PP5F3/pfnypzLxuzdzd2bnc/fiz9RnyffmzfH54bafri63IT981tfYHiSHOh/Ox+R2vEWO/qVerejWWJ2tTPMOBB3ikeFjSruCuIgb6QB8l/E+NUXBXEaMFfWB+V37lhSevgkiKGC2Q1ee25FiRK0UM8GBxLeF/aoyCu4oY6AN9pLhe0q7griIG+ljpY9D83j8z+I7ve//9X3cnrrzWffPic923nn+r2/mPvztqkn/wce8/gnn28d3u2b870z3y4sG7wS99sN89/ev9QaM8mIZ93ynz2xujO5dudH/64qvu89+/PTmewtztu0c7t7PzdvfhF18tjOehPrXPm9H8+RefdC9n7nT3+VnHNS+uKdp932fC185D7fkwv1e1p2QNSo1h/cjPryJXihis521hDh7gkarTJe2KWqKI0YI+ML8xv7N22LdA1pJi4ccohK2IAR4srp7bNY4V3FXEQB/oo4Ye/BwK7ipioI+VPobM793LLxw1tG982p24/HJ3x9nz3beee6M7+VfvdHc/9WL3jUef6nZv/P2R/jaHNw/PXd5bmN8PXtpdtD3+zunu8m805rddSzBl//Te5SPX5q81Pvbmbty27t/hmm3X9bpjhflvB/PbrjX8QUOZm5Cjkm/M71Xt8etLjWPWj/z8KnKliMF63hbm4AEeNWq5n0NRSxQxWtAH5jfmN+Z3ZQ5sS/HwhbnkWJErRYwWinlJ/v0YRa4UMcCDh0/P7RrHCu4qYmyTPt55553uo48+OvK5evXq4tlnyPzee/36ETP73rfe7+548LHu1H/64+G2X948fBxelfL69SNm7bnLBzu/zz652+0/sttd+Ml+d/lv9xe/7Tj+pMzFqTu/w3x9xm4wUcOrUvyu8T7zOzXG4u1c++TQq1f+9N7bB68riXafhx3My9jRjmu71nA+fAfjPr6mMIftao/H9O3ezrmmvhyF/Nl3HNsfx/H9NS9ycmsHfmgbyvXLt+49tC+uKdr5vZjL7YoP1+XH9sW1+LFpHq47Phf+8GB5DXP7974PnbeY/hOb36bBPm2aZuN6vU31Kr7vkt+sH209+4AHeJToODVGwatNicH60ZYGW8AD87uy8ekLFsWjLdGBB3h4jdY4bqGY17gP9IE+avDIz4E+2uLVNuFx8+bN7ssvvzzyuX79+rj5/cNfHDG0Tzzz6mLHd847vxd9fviLI+bfuWdW5re9/mTs441Df1xqfh+Y1qv3f5sZHL8PfGkkR0arNzhzxvSZqTaPma7xq1cuvvfJ8l3kfbGDARubspaL+JrCOJs7mONh3OFYB2Z6PFf/NY2/9iSO7a/FjkPsOM7ifGaufY5sbK/5vTDSV1j23UuI683u8MeLkC/rF99XyGnIn8d8Ma8z3+3c2Cc2v02Dfdo0zcZryDbVq/i+S34rnuHAg/W8hJupMQruKmKgD/SR4npJu4K7ihgt6APzG/P70EPmkCBbIOvQtU05rxC2IgZ4sLhO4X1uXwV3FTHQB/rI5fyUfgruKmJskz6qm9/fe/2IKT5ohveY37ExOGZ8W1vct+/3PPP74B3aweA8YtL2mKphB3LOmGD+xsaq3UMYGwzVvvs6MFlX79sOc/lr7DVqI8Pe5l4Yxrd2kod5cq4pGPdmGIdPvIs8jm1x/HGIFV9zuPf43CInfbmOdr+HHHnzO8SIc7m4Djc29PP37fOzuJZbZrb1jXN30Hbwj4zG83iswrUOfWN+56/NU9am0Jf1Iz+/ilwpYmzTeh54XvoNHuijlDtj4xS82pQYLdQrzG/Mb8zvyhxQFKgWisfYQpDbpsiVIgZ4tPVABR7gkVuDpvRT1BJFjG3SR7H5PfTak7Pnuwfe+y+HDPAH3v3toeOlGd7z2pPYFDxe8/tgt3DY/RsMXv8djNrY3M0ZE/qE8eG+gwEcG7bWZvPHsWOjOZi3fq5D17RzYMz6eWMDd8o1xePCtcffcexw/eGPA3bcd80hfnyf8e9wf37uENeuKe5vv2Mjuu86Ftdy6zUrYf4w36LN7USP+8f/N0AYs8jLrT8wBCz9NYS+fd+Y3/lr85S1KfRl/cjPryJXihjbtJ4Hnpd+gwf6KOXO2DgFrzYlRgv1CvO7svHpxQFZt6/QKjBvoXh4rpccK3KliAEebekcPMCjpB6lxihqiSLGNumj1Pwe+gcvv/nUi92d9g9efu/17p4Xf9jddeHq4nj3g4+PGOB9/+BlbAgel/kdG7vBkO0zRuNrjQ3ZnDFDfYJhGkzqYBIfMrsXhmzhzu/oXeJ2/Tn36q/Jj4vzEH7H+bBz/jjcV5zXoZyEOcO3nyucj43ncM5/940di9v7KpNbZnmf+X0wV/yHk9UrV/y19B1jfuevzan1qK+d9SM/v4pcKWJs03rex/kp58ADfUzhS25fBa82JUYL9QrzG/Obnd+VOaAoUC0Uj9xFYayfIleKGODR1gMVeIDHWN0pbVPUEkWMbdJHqfl9av9Mt9djaO/d+LSzf/jS3v9996UXunte+mF36v3DO8EXO78/+LizOfoMwHDuOMzvYMqG3br+OFyb/45N1ZwxQ33C+aX53bPzODas7TrCmNhItvOHrylj53f0So/4/sL84ZqszV9D3N/H7jsOc8bXHM6F3Ps5w3F8X+GcfReb3wP3vZwzek1K+EOAXWNfvFR7fL19vzG/89fmknWK9SM/v4pcKWJs03peool4DHigj5gPtX4reLUpMVqoV5jflY1PLyTIun2FVoF5C8XDc73kWJErRQzwaEvn4AEeJfUoNUZRSxQxtkkf77zzTvfRRx8d+Vy9enXxh/9/e/dEd+HcA70m9e4Lbx7Zzb18pcmv/mG0zcb2mX/xuSd+frob+8R9+35Pfee37fK1V2XEJq/NayannT9k1Nru32gXtTdks8d8cXhnsM0TX0O4phA77FI+tBN8wLyNrymYsn33Fs+1GJO4ppCTeJzPfxzb2vzxkNGdnTf37vLlNfWcj6/NX0do6417iw8h9/4+hnK62C3+2Sfdh58dvDc+xMj5js1v02CfNk2zcS3epnoV33fJb9aPtp59wAM8SnScGqPg1abEYP1oS4Mt4IH5jfl96CFzqOC2QNaha5tynmLeVhEED/CYot/cvtSrtngFHuCRq90p/WqsH6Pm995et/vOjVGTu88MtzG7e3tJ8zvHLBzrkzK/zWSOP2NmbjBHQ//4/dV2DX2mampMGBfmtO8Prx3doR3Ps4jrXnti8wST3OYIO6fjaxoyam1uf982Luea/LgYizh2uE+fs75rtr7x/dp1+HF+7hB3cS+F5rfNEV/PIm7PHwH8q06Wf4yI/hASjP2x/IRr9t+x+Z2rddYP1o9crkzpV2P9SMVTxEAf6CPFw5J2BXcVMdAH+vD8x/zG/Mb8rswBinlbhRY8wMMvfDWOFbzalBg8fLalQfBY4TFmfi+MuzNnJxngZnyfOnN27ca3XduY+e1Nx1aOh0zq47y+Fq/pOPORij0nX5jfq9pT4znEz6F4ZmD9yMcQPNrKFXiAh6+ZNY4VvNqUGC2sH5jflY1PLyLIun2FVoF5C8XDc73kWJErRQzwaEvn4AEeJfUoNUZRSxQx0MdKH0nz+9SpxS7uxStQ+t4BHl5/8sHHnfVR7PgO5uRtaX7f+scU41dthPs5ru+wu7mlazquXOTEjf/Ry5z+cR/M71XtSa03Je2sH/n5VeRKEYP1vC3MwQM8Smp3aoyilihitKAPzG/Mb3Z+V+bAthSPVKHOaVfkShGjhWKek+9UH0WuFDHAg4fPFNdL2hXcVcRAHyt95JjfS/Nu/0y3+8yL3e61693ej36x+NhvO5f6xy2Xc5w6VW1XeOvmt72mI7yixO5/+bqMxKs71pGrMGeL1xSu7Xb5XryWJXoNypTrxvxe1Z6SNSg1hvUjP7+KXClisJ63hTl4gEeqTpe0K2qJIkYL+sD8rmx8ekIriKSI0QJZfW5LjhW5UsQADxbXEv6nxii4q4iBPtBHiusl7QruKmKgj5U+JpnfFY3rKYbhUN/WzW+7bv9+bf8PUg7d2zrPt3hN67zfWnOHd5X7d5RPmR/ze1V7Stag1BjWj/z8KnKliMF63hbm4AEeqTpd0q6oJYoYLegD8xvzm53flTmwLcWjpHj7MYpcKWK0UMx9bkuOFblSxAAPHj5L+J8ao+CuIgb6WOkD87veTvQpJih9tzPvmN+r2pNab0raWT/y86vIlSIG63lbmIMHeJTU7tQYRS1RxGhBH5jflY1PT14FkRQxWiCrz23JsSJXihjgweJawv/UGAV3FTHQB/pIcb2kXcFdRQz0sdIH5vd2mrCY78eDO+b3qvaUrEGpMawf+flV5EoRg/W8LczBAzxSdbqkXVFLFDFa0AfmN+Y3O78rc2BbikdJ8fZjFLlSxGihmPvclhwrcqWIAR48fJbwPzVGwV1FDPSx0gfm9/GYoJjP25l3zO9V7UmtNyXtrB/5+VXkShGD9bwtzMEDPEpqd2qMopYoYrSgj9nm91tvvdXFnzfffLN75ZVXuscff7y78847s4zVPsBbSI7dV9+12bmxtnjMXCLFufW/Q5z4WuLfob3Gdwt41LiPuXjkXIMiBniwuOZwcWofBXcVMdAH+pjK/Zz+Cu4qYqCPlT4wv7fThMV8Px7cMb9XtSdnzZnah/UjP7+KXClisJ63hTl4gMfUup3TX1FLFDFa0EcV8zsG7Y477ui+8Y1vdN/5zne6S5cuDZrH8Zi+3y0kZ8xIHmuL72cukXLixDFy+sfXl/u7BTxyr3WsX5yrsX5z2hQxwIPFdQ5Hh8YquKuIgT7QxxDH55xXcFcRA32s9IH5fTwmKObzduYd83tVe+asRUNjWT/y86vIlSIG63lbmIMHeAzV5znnFbVEEaMFfVQ3vwOwlsBr165hfn/zm8U5sFzmmNkxWXP6B4ymfLdA1inXO9Q3ztVQn7nnFTHAg8V1Lk/7xiu4q4iBPtBHH7/nnlNwVxEDfaz0Yeb3C+d3OjPlbrfPY/v33nbXfLvlmOutqwvTmmnu9Mk7sv/biHq1qlepNYz1o61cgQd4pDRb0q7g1abEYP1oS4Mt4LFW8/vVV19dPtzYjvDvfve73Q9+8IPujTfe6J5//vnu5MmTi3br961vfWvZ186biRsnyNrtdSqhSDz22GPda6+9tpjPXrFi84c2G/vQQw91r7/+evfcc88tz/sxd99997LNdqs/+eSTizlt3nPnzo0azxbjwQcf7CyBZvI//fTT3V133dV9+9vf7l566aXlvKF42Ctg7N6tT7hO3zecj/vmmNlxn/i3zefvOc7T6dOnO3tNjY2xa7ty5cri+sN1xN8xFvH5mr9DrmrO6efalBjgQTH33K5xjD7a4hV4gEcNXfs5WD9WvDIjjg85gANaDmB+r2qQr89zjhXPDKwf+diBR1u5Ag/wmFNfh8YqeLUpMVpYP6qb32bcmlH9xBNPLIzXQBR7DcrFixcXr0SxPnb8zDPPLIx80Di0AAALxElEQVTgy5cvd2fPnl2awtbv5Zdf7p566qnlOWs3g9nms9/2sXnsc+HChcV8IZaZudbXDO177rlncIwZw2GM9Tcz2OYz8/3FF19Mmt9mctv8NsbMcjP3bT4z9nd3dxe/A1mtPb6fEDfuG87Ffb2ZHfrE33Gf+HcqT2Z82z3bXJYr+4NBbNzHMVoga3w9pb8DHqXjc8YpYoBHWws4eIBHTm2Y2kdRSxQx0Af6mMr9nP41uGsmHB9yAAe0HLhjwj80z/rB+pGzHkztU2P9SMVUxEAf6CPFw5J2BXcVMdAH+vD8r2J+m+EaPrar2yY9f/78od3YZqrGu7uN8Lbb2C7o4YcfXuy6tt9mJNv5M2fOLHZhmylr521Xtpmz9vv73//+wqy13/Y5ceLEImY4tmuxXdXh2L77xpjBHvrYrnKLHY7tfYSxkRzOh29re+CBB5b97TpfeOGFxbFd+/e+973F7yBsM9Pvv//+Zf8wT9w3nIv7hrz679DXvuPrjH/33bNhE8baDnczyMPx2DfFg+Ixxo/StqCP0vE54xQx0Af6yOHi1D4K7ipioA/0MZX7Of0V3FXEQB/oI4fvU/souKuIgT7Qx1Tu5/RXcFcRA32gjxy+T+2j4K4iBvpAH577S/PbyFHyMbM1Z5ztMjazOPS133bOju31IWZE22/bjX316tXFbzOQ7ZUmdt7MaTNq7be9zsSbwWEua7e2OFbOGDPtrV/42M7tsXuzNjPIQ/8Qw74tthnLdl92bOZ+uL+4f07fsWsIc8V94t+pPD366KOLe7Td5/bHCjsOc/K94gK5IBdwAA7AATgAB24/Dvz5z3/uvvzyyyOf999/n+ed6Jn3duC2Paf2YWnnrO12uAeucVVDTIN9eJpmydMqT+SCXMABOAAH4AAcqMOBpfntXfGx4/gvNWa2jvUNbfZe7Hhntf0OY+091NZu78O2d3QHcM1ctt3Ldt7M5DCXmbrxXOF8+A7zhmP77hvj7yOe03Zy980T5rS2uL/dg8UI7Wbi22tOLIa93iXsWg/t8Xfoa+d837FrCHPEfeLfffccxoTve++9d3Ftly5dWuy4H9oJbpiEMev6jvEgxvhf6sBjPD8xfxS8Ag/wiDlX67eCu4oY6AN91NJEPE8Od2/evNlrsF2/fj3rmSYnRnxNJb/RR54+bFNKn1lq58KrBkvy78eARx4elrc5+jAN9uFpmo0xAQ8NHnHOx36DB3iM8aO0bU4tyY2piIE+0EcuH6f0U3BXEaMFfcjMb3sliH/tSWzU2m5vew94eC2HJccMZdvxbTs6wvvBjSj2WpB4Lk+eeN7Q1jcmBtnM9XhOe0VJ3zxhPmu77777lg9oNlf8GhX7xzTNfLZ5grEfxvrv0NfeNe77jl1DmCfuE//uu+cwpu/b7iceH/dpgazx9ZT+jjEvnSM1ThEDPFhcUzwsaVdwVxEDfaCPEv6nxii4q4ixTfrA/D6oBQperTsG5nd+Xbdatm485sbA/J6GZ2p9motHzvzWZ5vWj9ycDPVTaBA88nUEHm3lCjzAY6h2zjmf4pXM/Ladz/4fvIx3c5vBba8esVdv2A2HYm67ou28GeMhETaX9bfd2XaDNia8Y9v69Bm4fWPsdR9hzmeffXbxihWb00xw23HeN0/ob222S92Ma9sBbq82sfsL7fZthr0l2HZVx+f7fltfey+67zt2DWGeuE/8u++e4zzZHySsj92zzbW/v794FU2YN/4OeMTnav9OkbVGvE2JAR5tLRjgAR416pOfg3rVFq/A4/bDA/P7ALNN4C7md77+bC1pHXPM72l4+ueDvmMF5jzv5uMGHm3lCjzAo69uzj2n4NWmxGhh/ZCZ37aL+8KFC4udzba72czmeOd0eAe4mclGwpAcM6LN0I3/sUiby94Fbua57a6+cuXKwoQO5I0N4HCub4zttA7tZgDbP6ppc9rHzOy+eUJ/azPjOFyD3Y8npt2T9YvvM4z330N9x64hzBH3iX/33XPIr421+zcz3PCwcfbe9NOnTy9zEua374BHfK72b5+/2vPbfJsSAzzaWsDBAzyoV8McQB/DufG8UaxR24QH5vcB9xS8WncMzO/8OnI7PO9ifk/D068Vfcfr1qDF3Kb1oy/HU86BRz7HFblSxEAfbWEOHuDha/Zs89tPWOt4E8hqxr29tiUnJ1P6+vko5m0JGzzAw2u0xrGCV5sSYxPWD+MMeGxfLVFgvk36wPw+0JCCV+uOgfmdXw9vh/UD83sanjnPkevWoF3DNq0fOTkf6wMe+RxX5EoRA320hTl4gIev0Zjf/y6fFD55Y8e2k9xeg2K73cf6WVvoa694SfXta6eY52OoyJUiBsW8LczBAzz6avPcc4paooiBPtDHXC30jc/hbnglnT2PxR8zUvvm9OdyYvgxU4/RR54+7rrrrsU/JB/jGH5b29S8D/UHjzw8LH9z9GEaDPjF36bZGBvw0OAR53zsN3iAxxg/Stvm1JLcmIoY6AN95PJxSj8FdxUxWtAH5veazG97HYu9E/zEiROHHuL6iB762rvD+9pT57aFrKk85LQrcqWI0ULxyMl3qo8iV4oY4MHDTorrJe0K7ipioA/0UcL/1BgFdxUx0Af6SHG9pF3BXUUM9IE+SvifGqPgriIG+kAfKa6XtCu4q4iBPtCH5z/m95rM75BohbAVMSgeFI/A6ZrfCu4qYqAP9FFTF2EuBXcVMdAH+gicrvmt4K4iBvpAHzV1EeZScFcRA32gj8Dpmt8K7ipioA/0UVMXYS4FdxUx0Af6CJwO35jfmN9Zu80pHhSPUDRqfisWPkUM9IE+auoizKXgriIG+kAfgdM1vxXcVcRAH+ijpi7CXAruKmKgD/QROF3zW8FdRQz0gT5q6iLMpeCuIgb6QB+B0+Eb8xvzG/O7Mgco5m0VWvAAj7Dg1fxW8GpTYvDw2ZYGwQM8atbCMBf1qi1egQd4BG3W/Gb9aItX4AEeNfUd5mL9aItX4FEPD8zvysZnKBrhG7LWI2vI6Zxv8ACPOfwZGsvDZ1u8Ag/wGNLqnPOsH23xCjzAY46eh8ayfrTFK/AAjyGtzjnP+tEWr8ADPOboeWgs60dbvGoBD8xvzG92flfmgGIBb6F4DC00U84rcqWIAR4srlN4n9tXwV1FDPSBPnI5P6WfgruKGOgDfUzhfW5fBXcVMdAH+sjl/JR+Cu4qYqAP9DGF97l9FdxVxEAf6MNzHvO7svHpE6wQtiIGxYPi4bld41jBXUUM9IE+aujBz6HgriIG+kAfnts1jhXcVcRAH+ijhh78HAruKmKgD/ThuV3jWMFdRQz0gT5q6MHPoeCuIgb6QB+e25jfmN/s/K7MAYp5W4UWPMDDL3w1jhW82pQYPHy2pUHwAI8aNdDPQb1qi1fgAR5eozWOWT/a4hV4gEcNXfs5WD/a4hV41MMD87uy8UnxyCfnpuZKUaB42MnnGXi0lSvwAA9f+2scK3i1KTFYP9rSIHiAR40a6OegXrXFK/AAD6/RGsesH23xCjzAo4au/RysH/V4hfmN+c3O78ocUBQoFtd6RdAvMCXH4AEeJbxJjVHUEkUM9IE+UlwvaVdwVxEDfaCPEv6nxii4q4iBPtBHiusl7QruKmKgD/RRwv/UGAV3FTHQB/rwXMf8rmx8+gQrhK2IQfGgeHhu1zhWcFcRA32gjxp68HMouKuIgT7Qh+d2jWMFdxUx0Af6qKEHP4eCu4oY6AN9eG7XOFZwVxEDfaCPGnrwcyi4q4iBPtCH5zbmN+Y3O78rc4Bi3lahBQ/w8AtfjWMFrzYlBg+fbWkQPMCjRg30c1Cv2uIVeICH12iNY9aPtngFHuBRQ9d+DtaPtngFHvXwwPyubHxSPPLJuam5UhQoHnbyeQYebeUKPMDD1/4axwpebUoM1o+2NAge4FGjBvo5qFdt8Qo8wMNrtMYx60dbvAIP8Kihaz8H60c9Xi3Nb/vBhxzAATgAB+AAHIADcAAOwAE4AAfgAByAA3AADsABOAAH4MCmcOD/A4o5PcXwZTqkAAAAAElFTkSuQmCC;" vertex="1" parent="1">
          <mxGeometry x="-96" y="533" width="884.11" height="235" as="geometry" />
        </mxCell>
        <mxCell id="hU0LM_bAb93TU4vBXJBQ-10" value="DelegatingFilterProxy" style="rounded=0;whiteSpace=wrap;html=1;verticalAlign=top;fontFamily=MesloLGS NF;" vertex="1" parent="1">
          <mxGeometry x="268" y="799" width="198" height="421" as="geometry" />
        </mxCell>
        <mxCell id="hU0LM_bAb93TU4vBXJBQ-13" value="" style="edgeStyle=orthogonalEdgeStyle;rounded=0;orthogonalLoop=1;jettySize=auto;html=1;" edge="1" parent="1" source="hU0LM_bAb93TU4vBXJBQ-11" target="hU0LM_bAb93TU4vBXJBQ-12">
          <mxGeometry relative="1" as="geometry" />
        </mxCell>
        <mxCell id="hU0LM_bAb93TU4vBXJBQ-11" value="init" style="rounded=0;whiteSpace=wrap;html=1;fontFamily=MesloLGS NF;" vertex="1" parent="1">
          <mxGeometry x="338" y="847" width="58" height="40" as="geometry" />
        </mxCell>
        <mxCell id="hU0LM_bAb93TU4vBXJBQ-15" value="" style="edgeStyle=orthogonalEdgeStyle;rounded=0;orthogonalLoop=1;jettySize=auto;html=1;" edge="1" parent="1" source="hU0LM_bAb93TU4vBXJBQ-12" target="hU0LM_bAb93TU4vBXJBQ-14">
          <mxGeometry relative="1" as="geometry" />
        </mxCell>
        <mxCell id="hU0LM_bAb93TU4vBXJBQ-12" value="initFilterBean" style="whiteSpace=wrap;html=1;fontFamily=MesloLGS NF;rounded=0;" vertex="1" parent="1">
          <mxGeometry x="307" y="911" width="120" height="48" as="geometry" />
        </mxCell>
        <mxCell id="hU0LM_bAb93TU4vBXJBQ-14" value="initDelegate" style="whiteSpace=wrap;html=1;fontFamily=MesloLGS NF;rounded=0;" vertex="1" parent="1">
          <mxGeometry x="307" y="983" width="120" height="42" as="geometry" />
        </mxCell>
      </root>
    </mxGraphModel>
  </diagram>
</mxfile>
